  0
SECTION
  2
HEADER
  9
$ACADVER
  1
AC1027
  9
$ACADMAINTVER
 70
   125
  9
$DWGCODEPAGE
  3
ANSI_1252
  9
$REQUIREDVERSIONS
160
                 0
  9
$INSBASE
 10
0.0
 20
0.0
 30
0.0
  9
$EXTMIN
 10
1.000000000000000E+20
 20
1.000000000000000E+20
 30
1.000000000000000E+20
  9
$EXTMAX
 10
-1.000000000000000E+20
 20
-1.000000000000000E+20
 30
-1.000000000000000E+20
  9
$LIMMIN
 10
0.0
 20
0.0
  9
$LIMMAX
 10
12.0
 20
9.0
  9
$ORTHOMODE
 70
     0
  9
$REGENMODE
 70
     1
  9
$FILLMODE
 70
     1
  9
$QTEXTMODE
 70
     0
  9
$MIRRTEXT
 70
     0
  9
$LTSCALE
 40
1.0
  9
$ATTMODE
 70
     1
  9
$TEXTSIZE
 40
0.2
  9
$TRACEWID
 40
0.05
  9
$TEXTSTYLE
  7
Standard
  9
$CLAYER
  8
0
  9
$CELTYPE
  6
ByLayer
  9
$CECOLOR
 62
   256
  9
$CELTSCALE
 40
1.0
  9
$DISPSILH
 70
     0
  9
$DIMSCALE
 40
1.0
  9
$DIMASZ
 40
0.18
  9
$DIMEXO
 40
0.0625
  9
$DIMDLI
 40
0.38
  9
$DIMRND
 40
0.0
  9
$DIMDLE
 40
0.0
  9
$DIMEXE
 40
0.18
  9
$DIMTP
 40
0.0
  9
$DIMTM
 40
0.0
  9
$DIMTXT
 40
0.18
  9
$DIMCEN
 40
0.09
  9
$DIMTSZ
 40
0.0
  9
$DIMTOL
 70
     0
  9
$DIMLIM
 70
     0
  9
$DIMTIH
 70
     1
  9
$DIMTOH
 70
     1
  9
$DIMSE1
 70
     0
  9
$DIMSE2
 70
     0
  9
$DIMTAD
 70
     0
  9
$DIMZIN
 70
     0
  9
$DIMBLK
  1

  9
$DIMASO
 70
     1
  9
$DIMSHO
 70
     1
  9
$DIMPOST
  1

  9
$DIMAPOST
  1

  9
$DIMALT
 70
     0
  9
$DIMALTD
 70
     2
  9
$DIMALTF
 40
25.4
  9
$DIMLFAC
 40
1.0
  9
$DIMTOFL
 70
     0
  9
$DIMTVP
 40
0.0
  9
$DIMTIX
 70
     0
  9
$DIMSOXD
 70
     0
  9
$DIMSAH
 70
     0
  9
$DIMBLK1
  1

  9
$DIMBLK2
  1

  9
$DIMSTYLE
  2
Standard
  9
$DIMCLRD
 70
     0
  9
$DIMCLRE
 70
     0
  9
$DIMCLRT
 70
     0
  9
$DIMTFAC
 40
1.0
  9
$DIMGAP
 40
0.09
  9
$DIMJUST
 70
     0
  9
$DIMSD1
 70
     0
  9
$DIMSD2
 70
     0
  9
$DIMTOLJ
 70
     1
  9
$DIMTZIN
 70
     0
  9
$DIMALTZ
 70
     0
  9
$DIMALTTZ
 70
     0
  9
$DIMUPT
 70
     0
  9
$DIMDEC
 70
     4
  9
$DIMTDEC
 70
     4
  9
$DIMALTU
 70
     2
  9
$DIMALTTD
 70
     2
  9
$DIMTXSTY
  7
Standard
  9
$DIMAUNIT
 70
     0
  9
$DIMADEC
 70
     0
  9
$DIMALTRND
 40
0.0
  9
$DIMAZIN
 70
     0
  9
$DIMDSEP
 70
    46
  9
$DIMATFIT
 70
     3
  9
$DIMFRAC
 70
     0
  9
$DIMLDRBLK
  1

  9
$DIMLUNIT
 70
     2
  9
$DIMLWD
 70
    -2
  9
$DIMLWE
 70
    -2
  9
$DIMTMOVE
 70
     0
  9
$DIMFXL
 40
1.0
  9
$DIMFXLON
 70
     0
  9
$DIMJOGANG
 40
0.7853981633974483
  9
$DIMTFILL
 70
     0
  9
$DIMTFILLCLR
 70
     0
  9
$DIMARCSYM
 70
     0
  9
$DIMLTYPE
  6

  9
$DIMLTEX1
  6

  9
$DIMLTEX2
  6

  9
$DIMTXTDIRECTION
 70
     0
  9
$LUNITS
 70
     2
  9
$LUPREC
 70
     4
  9
$SKETCHINC
 40
0.1
  9
$FILLETRAD
 40
0.0
  9
$AUNITS
 70
     0
  9
$AUPREC
 70
     0
  9
$MENU
  1
.
  9
$ELEVATION
 40
0.0
  9
$PELEVATION
 40
0.0
  9
$THICKNESS
 40
0.0
  9
$LIMCHECK
 70
     0
  9
$CHAMFERA
 40
0.0
  9
$CHAMFERB
 40
0.0
  9
$CHAMFERC
 40
0.0
  9
$CHAMFERD
 40
0.0
  9
$SKPOLY
 70
     0
  9
$TDCREATE
 40
2460979.188391203
  9
$TDUCREATE
 40
2460979.188391203
  9
$TDUPDATE
 40
2460979.188391203
  9
$TDUUPDATE
 40
2460979.188391203
  9
$TDINDWG
 40
0.0000000000
  9
$TDUSRTIMER
 40
0.0000000000
  9
$USRTIMER
 70
     1
  9
$ANGBASE
 50
0.0
  9
$ANGDIR
 70
     0
  9
$PDMODE
 70
     0
  9
$PDSIZE
 40
0.0
  9
$PLINEWID
 40
0.0
  9
$SPLFRAME
 70
     0
  9
$SPLINETYPE
 70
     6
  9
$SPLINESEGS
 70
     8
  9
$HANDSEED
  5
B6
  9
$SURFTAB1
 70
     6
  9
$SURFTAB2
 70
     6
  9
$SURFTYPE
 70
     6
  9
$SURFU
 70
     6
  9
$SURFV
 70
     6
  9
$UCSBASE
  2

  9
$UCSNAME
  2

  9
$UCSORG
 10
0.0
 20
0.0
 30
0.0
  9
$UCSXDIR
 10
1.0
 20
0.0
 30
0.0
  9
$UCSYDIR
 10
0.0
 20
1.0
 30
0.0
  9
$UCSORTHOREF
  2

  9
$UCSORTHOVIEW
 70
     0
  9
$UCSORGTOP
 10
0.0
 20
0.0
 30
0.0
  9
$UCSORGBOTTOM
 10
0.0
 20
0.0
 30
0.0
  9
$UCSORGLEFT
 10
0.0
 20
0.0
 30
0.0
  9
$UCSORGRIGHT
 10
0.0
 20
0.0
 30
0.0
  9
$UCSORGFRONT
 10
0.0
 20
0.0
 30
0.0
  9
$UCSORGBACK
 10
0.0
 20
0.0
 30
0.0
  9
$PUCSBASE
  2

  9
$PUCSNAME
  2

  9
$PUCSORG
 10
0.0
 20
0.0
 30
0.0
  9
$PUCSXDIR
 10
1.0
 20
0.0
 30
0.0
  9
$PUCSYDIR
 10
0.0
 20
1.0
 30
0.0
  9
$PUCSORTHOREF
  2

  9
$PUCSORTHOVIEW
 70
     0
  9
$PUCSORGTOP
 10
0.0
 20
0.0
 30
0.0
  9
$PUCSORGBOTTOM
 10
0.0
 20
0.0
 30
0.0
  9
$PUCSORGLEFT
 10
0.0
 20
0.0
 30
0.0
  9
$PUCSORGRIGHT
 10
0.0
 20
0.0
 30
0.0
  9
$PUCSORGFRONT
 10
0.0
 20
0.0
 30
0.0
  9
$PUCSORGBACK
 10
0.0
 20
0.0
 30
0.0
  9
$USERI1
 70
     0
  9
$USERI2
 70
     0
  9
$USERI3
 70
     0
  9
$USERI4
 70
     0
  9
$USERI5
 70
     0
  9
$USERR1
 40
0.0
  9
$USERR2
 40
0.0
  9
$USERR3
 40
0.0
  9
$USERR4
 40
0.0
  9
$USERR5
 40
0.0
  9
$WORLDVIEW
 70
     1
  9
$SHADEDGE
 70
     3
  9
$SHADEDIF
 70
    70
  9
$TILEMODE
 70
     1
  9
$MAXACTVP
 70
    64
  9
$PINSBASE
 10
0.0
 20
0.0
 30
0.0
  9
$PLIMCHECK
 70
     0
  9
$PEXTMIN
 10
1.000000000000000E+20
 20
1.000000000000000E+20
 30
1.000000000000000E+20
  9
$PEXTMAX
 10
-1.000000000000000E+20
 20
-1.000000000000000E+20
 30
-1.000000000000000E+20
  9
$PLIMMIN
 10
0.0
 20
0.0
  9
$PLIMMAX
 10
12.0
 20
9.0
  9
$UNITMODE
 70
     0
  9
$VISRETAIN
 70
     1
  9
$PLINEGEN
 70
     0
  9
$PSLTSCALE
 70
     1
  9
$TREEDEPTH
 70
  3020
  9
$CMLSTYLE
  2
Standard
  9
$CMLJUST
 70
     0
  9
$CMLSCALE
 40
1.0
  9
$PROXYGRAPHICS
 70
     1
  9
$MEASUREMENT
 70
     0
  9
$CELWEIGHT
370
    -1
  9
$ENDCAPS
280
     0
  9
$JOINSTYLE
280
     0
  9
$LWDISPLAY
290
     0
  9
$INSUNITS
 70
     4
  9
$HYPERLINKBASE
  1

  9
$STYLESHEET
  1

  9
$XEDIT
290
     1
  9
$CEPSNTYPE
380
     0
  9
$PSTYLEMODE
290
     1
  9
$FINGERPRINTGUID
  2
{C8E47B92-1BE0-064F-93EF-3376EEDDD797}
  9
$VERSIONGUID
  2
{C48E32D3-F26F-C645-B2C8-A8BA4C7D8D5C}
  9
$EXTNAMES
290
     1
  9
$PSVPSCALE
 40
0.0
  9
$OLESTARTUP
290
     0
  9
$SORTENTS
280
   127
  9
$INDEXCTL
280
     0
  9
$HIDETEXT
280
     1
  9
$XCLIPFRAME
280
     2
  9
$HALOGAP
280
     0
  9
$OBSCOLOR
 70
   257
  9
$OBSLTYPE
280
     0
  9
$INTERSECTIONDISPLAY
280
     0
  9
$INTERSECTIONCOLOR
 70
   257
  9
$DIMASSOC
280
     2
  9
$PROJECTNAME
  1

  9
$CAMERADISPLAY
290
     0
  9
$LENSLENGTH
 40
50.0
  9
$CAMERAHEIGHT
 40
0.0
  9
$STEPSPERSEC
 40
2.0
  9
$STEPSIZE
 40
6.0
  9
$3DDWFPREC
 40
2.0
  9
$PSOLWIDTH
 40
0.25
  9
$PSOLHEIGHT
 40
4.0
  9
$LOFTANG1
 40
1.570796326794896
  9
$LOFTANG2
 40
1.570796326794896
  9
$LOFTMAG1
 40
0.0
  9
$LOFTMAG2
 40
0.0
  9
$LOFTPARAM
 70
     7
  9
$LOFTNORMALS
280
     1
  9
$LATITUDE
 40
37.795
  9
$LONGITUDE
 40
-122.394
  9
$NORTHDIRECTION
 40
0.0
  9
$TIMEZONE
 70
 -8000
  9
$LIGHTGLYPHDISPLAY
280
     1
  9
$TILEMODELIGHTSYNCH
280
     1
  9
$CMATERIAL
347
11
  9
$SOLIDHIST
280
     0
  9
$SHOWHIST
280
     1
  9
$DWFFRAME
280
     2
  9
$DGNFRAME
280
     0
  9
$REALWORLDSCALE
290
     1
  9
$INTERFERECOLOR
 62
     1
  9
$INTERFEREOBJVS
345
33
  9
$INTERFEREVPVS
346
30
  9
$CSHADOW
280
     0
  9
$SHADOWPLANELOCATION
 40
0.0
  0
ENDSEC
  0
SECTION
  2
CLASSES
  0
CLASS
  1
ACDBDICTIONARYWDFLT
  2
AcDbDictionaryWithDefault
  3
ObjectDBX Classes
 90
        0
 91
        1
280
     0
281
     0
  0
CLASS
  1
MATERIAL
  2
AcDbMaterial
  3
ObjectDBX Classes
 90
     1153
 91
        3
280
     0
281
     0
  0
CLASS
  1
VISUALSTYLE
  2
AcDbVisualStyle
  3
ObjectDBX Classes
 90
     4095
 91
       24
280
     0
281
     0
  0
CLASS
  1
SCALE
  2
AcDbScale
  3
ObjectDBX Classes
 90
     1153
 91
       17
280
     0
281
     0
  0
CLASS
  1
TABLESTYLE
  2
AcDbTableStyle
  3
ObjectDBX Classes
 90
     4095
 91
        1
280
     0
281
     0
  0
CLASS
  1
MLEADERSTYLE
  2
AcDbMLeaderStyle
  3
ACDB_MLEADERSTYLE_CLASS
 90
     4095
 91
        1
280
     0
281
     0
  0
CLASS
  1
ACDBSECTIONVIEWSTYLE
  2
AcDbSectionViewStyle
  3
ObjectDBX Classes
 90
     1025
 91
        1
280
     0
281
     0
  0
CLASS
  1
ACDBDETAILVIEWSTYLE
  2
AcDbDetailViewStyle
  3
ObjectDBX Classes
 90
     1025
 91
        1
280
     0
281
     0
  0
CLASS
  1
DICTIONARYVAR
  2
AcDbDictionaryVar
  3
ObjectDBX Classes
 90
        0
 91
        5
280
     0
281
     0
  0
CLASS
  1
CELLSTYLEMAP
  2
AcDbCellStyleMap
  3
ObjectDBX Classes
 90
     1152
 91
        1
280
     0
281
     0
  0
ENDSEC
  0
SECTION
  2
TABLES
  0
TABLE
  2
VPORT
  5
8
330
0
100
AcDbSymbolTable
 70
     1
1001
ACAD
1000
DbSaveVer
1071
      421
  0
VPORT
  5
57
330
8
100
AcDbSymbolTableRecord
100
AcDbViewportTableRecord
  2
*Active
 70
     0
 10
0.0
 20
0.0
 11
1.0
 21
1.0
 12
500.0
 22
500.0
 13
0.0
 23
0.0
 14
1.0
 24
1.0
 15
0.0
 25
0.0
 16
0.0
 26
0.0
 36
1.0
 17
0.0
 27
0.0
 37
0.0
 40
12.0
 41
1.0
 42
50.0
 43
0.0
 44
0.0
 50
0.0
 51
0.0
 71
     0
 72
   100
 73
     1
 74
     1
 75
     0
 76
     0
 77
     0
 78
     0
281
     0
 65
     1
110
0.0
120
0.0
130
0.0
111
1.0
121
0.0
131
0.0
112
0.0
122
1.0
132
0.0
 79
     0
146
0.0
 60
     3
 61
     5
292
     1
282
     1
141
0.0
142
0.0
 63
   250
421
  3355443
  0
ENDTAB
  0
TABLE
  2
LTYPE
  5
5
330
0
100
AcDbSymbolTable
 70
     1
  0
LTYPE
  5
5B
330
5
100
AcDbSymbolTableRecord
100
AcDbLinetypeTableRecord
  2
ByBlock
 70
     0
  3

 72
    65
 73
     0
 40
0.0
  0
LTYPE
  5
5C
330
5
100
AcDbSymbolTableRecord
100
AcDbLinetypeTableRecord
  2
ByLayer
 70
     0
  3

 72
    65
 73
     0
 40
0.0
  0
LTYPE
  5
5D
330
5
100
AcDbSymbolTableRecord
100
AcDbLinetypeTableRecord
  2
Continuous
 70
     0
  3
Solid line
 72
    65
 73
     0
 40
0.0
  0
ENDTAB
  0
TABLE
  2
LAYER
  5
2
330
0
100
AcDbSymbolTable
 70
     5
  0
LAYER
  5
54
330
2
100
AcDbSymbolTableRecord
100
AcDbLayerTableRecord
  2
0
 70
     0
 62
     7
  6
Continuous
370
    -3
390
F
347
21
348
0
  0
LAYER
  5
7A
330
2
100
AcDbSymbolTableRecord
100
AcDbLayerTableRecord
  2
花火 v1_Sketch1
 70
     0
 62
     7
  6
Continuous
370
    -3
390
F
347
21
348
0
1001
NFusion_SketchTransform
1000
1.000000;0.000000;0.000000;0.000000;0.000000;1.000000;0.000000;0.000000;0.000000;0.000000;1.000000;0.000000;0.000000;0.000000;0.000000;1.000000
  0
LAYER
  5
7D
330
2
100
AcDbSymbolTableRecord
100
AcDbLayerTableRecord
  2
花火 v1_Sketch2
 70
     0
 62
     7
  6
Continuous
370
    -3
390
F
347
21
348
0
1001
NFusion_SketchTransform
1000
1.000000;0.000000;0.000000;0.000000;0.000000;1.000000;0.000000;0.000000;0.000000;0.000000;1.000000;0.000000;0.000000;0.000000;0.000000;1.000000
  0
LAYER
  5
A3
330
2
100
AcDbSymbolTableRecord
100
AcDbLayerTableRecord
  2
花火 v1_Sketch3
 70
     0
 62
     7
  6
Continuous
370
    -3
390
F
347
21
348
0
1001
NFusion_SketchTransform
1000
1.000000;0.000000;0.000000;0.000000;0.000000;1.000000;0.000000;0.000000;0.000000;0.000000;1.000000;0.000000;0.000000;0.000000;0.000000;1.000000
  0
LAYER
  5
A5
330
2
100
AcDbSymbolTableRecord
100
AcDbLayerTableRecord
  2
花火 v1_Sketch4
 70
     0
 62
     7
  6
Continuous
370
    -3
390
F
347
21
348
0
1001
NFusion_SketchTransform
1000
1.000000;0.000000;0.000000;0.000000;0.000000;1.000000;0.000000;0.000000;0.000000;0.000000;1.000000;0.000000;0.000000;0.000000;0.000000;1.000000
  0
ENDTAB
  0
TABLE
  2
STYLE
  5
3
330
0
100
AcDbSymbolTable
 70
     2
  0
STYLE
  5
55
330
3
100
AcDbSymbolTableRecord
100
AcDbTextStyleTableRecord
  2
Standard
 70
     0
 40
0.0
 41
1.0
 50
0.0
 71
     0
 42
0.2
  3
txt
  4

  0
STYLE
  5
5A
330
3
100
AcDbSymbolTableRecord
100
AcDbTextStyleTableRecord
  2
Annotative
 70
     0
 40
0.0
 41
1.0
 50
0.0
 71
     0
 42
0.2
  3
txt
  4

1001
AcadAnnotative
1000
AnnotativeData
1002
{
1070
     1
1070
     1
1002
}
  0
ENDTAB
  0
TABLE
  2
VIEW
  5
6
330
0
100
AcDbSymbolTable
 70
     0
  0
ENDTAB
  0
TABLE
  2
UCS
  5
7
330
0
100
AcDbSymbolTable
 70
     0
  0
ENDTAB
  0
TABLE
  2
APPID
  5
9
330
0
100
AcDbSymbolTable
 70
     4
  0
APPID
  5
56
330
9
100
AcDbSymbolTableRecord
100
AcDbRegAppTableRecord
  2
ACAD
 70
     0
  0
APPID
  5
5E
330
9
100
AcDbSymbolTableRecord
100
AcDbRegAppTableRecord
  2
AcadAnnotative
 70
     0
  0
APPID
  5
78
330
9
100
AcDbSymbolTableRecord
100
AcDbRegAppTableRecord
  2
EDIT_IN_FUSION_ACAD_ADDIN
 70
     0
  0
APPID
  5
79
330
9
100
AcDbSymbolTableRecord
100
AcDbRegAppTableRecord
  2
NFusion_SketchTransform
 70
     0
  0
ENDTAB
  0
TABLE
  2
DIMSTYLE
  5
A
330
0
100
AcDbSymbolTable
 70
     2
100
AcDbDimStyleTable
 71
     0
  0
DIMSTYLE
105
58
330
A
100
AcDbSymbolTableRecord
100
AcDbDimStyleTableRecord
  2
Standard
 70
     0
340
55
  0
DIMSTYLE
105
59
330
A
100
AcDbSymbolTableRecord
100
AcDbDimStyleTableRecord
  2
Annotative
 70
     0
340
55
1001
AcadAnnotative
1000
AnnotativeData
1002
{
1070
     1
1070
     1
1002
}
  0
ENDTAB
  0
TABLE
  2
BLOCK_RECORD
  5
1
330
0
100
AcDbSymbolTable
 70
     1
  0
BLOCK_RECORD
  5
70
330
1
100
AcDbSymbolTableRecord
100
AcDbBlockTableRecord
  2
*Model_Space
340
73
 70
     0
280
     1
281
     0
  0
BLOCK_RECORD
  5
6C
330
1
100
AcDbSymbolTableRecord
100
AcDbBlockTableRecord
  2
*Paper_Space
340
6F
 70
     0
280
     1
281
     0
  0
BLOCK_RECORD
  5
74
330
1
100
AcDbSymbolTableRecord
100
AcDbBlockTableRecord
  2
*Paper_Space0
340
77
 70
     0
280
     1
281
     0
  0
ENDTAB
  0
ENDSEC
  0
SECTION
  2
BLOCKS
  0
BLOCK
  5
71
330
70
100
AcDbEntity
  8
0
100
AcDbBlockBegin
  2
*Model_Space
 70
     0
 10
0.0
 20
0.0
 30
0.0
  3
*Model_Space
  1

  0
ENDBLK
  5
72
330
70
100
AcDbEntity
  8
0
100
AcDbBlockEnd
  0
BLOCK
  5
6D
330
6C
100
AcDbEntity
 67
     1
  8
0
100
AcDbBlockBegin
  2
*Paper_Space
 70
     0
 10
0.0
 20
0.0
 30
0.0
  3
*Paper_Space
  1

  0
ENDBLK
  5
6E
330
6C
100
AcDbEntity
 67
     1
  8
0
100
AcDbBlockEnd
  0
BLOCK
  5
75
330
74
100
AcDbEntity
 67
     1
  8
0
100
AcDbBlockBegin
  2
*Paper_Space0
 70
     0
 10
0.0
 20
0.0
 30
0.0
  3
*Paper_Space0
  1

  0
ENDBLK
  5
76
330
74
100
AcDbEntity
 67
     1
  8
0
100
AcDbBlockEnd
  0
ENDSEC
  0
SECTION
  2
ENTITIES
  0
POINT
  5
7B
330
70
100
AcDbEntity
  8
花火 v1_Sketch1
100
AcDbPoint
 10
0.0
 20
0.0
 30
0.0
  0
CIRCLE
  5
7C
330
70
100
AcDbEntity
  8
花火 v1_Sketch1
100
AcDbCircle
 10
0.0
 20
0.0
 30
0.0
 40
49.15698916314839
  0
POINT
  5
7E
330
70
100
AcDbEntity
  8
花火 v1_Sketch2
100
AcDbPoint
 10
0.0
 20
0.0
 30
0.0
  0
CIRCLE
  5
7F
330
70
100
AcDbEntity
  8
花火 v1_Sketch2
100
AcDbCircle
 10
-8.483256660204467
 20
-24.62500891642678
 30
0.0
 40
1.715528908479423
  0
SPLINE
  5
80
330
70
100
AcDbEntity
  8
花火 v1_Sketch2
100
AcDbSpline
210
0.0
220
0.0
230
1.0
 70
    15
 71
     5
 72
    31
 73
    25
 74
     0
 42
0.000000001
 43
0.0000000001
 40
0.0
 40
0.0
 40
0.0
 40
0.0
 40
0.0
 40
0.0
 40
0.05
 40
0.1
 40
0.15
 40
0.2
 40
0.25
 40
0.3
 40
0.35
 40
0.4
 40
0.45
 40
0.5
 40
0.55
 40
0.6
 40
0.65
 40
0.7000000000000001
 40
0.7500000000000001
 40
0.8000000000000001
 40
0.8500000000000001
 40
0.9000000000000001
 40
0.9500000000000003
 40
1.0
 40
1.0
 40
1.0
 40
1.0
 40
1.0
 40
1.0
 10
3.299044256746164
 20
-0.5891150458475459
 30
0.0
 41
1.0
 10
3.251696422649708
 20
-0.6241416741127861
 30
0.0
 41
1.0
 10
3.235887493336154
 20
-0.7359453301910819
 30
0.0
 41
1.0
 10
3.451444270161118
 20
-1.028760995994547
 30
0.0
 41
1.0
 10
4.210727302337611
 20
-1.682902251547331
 30
0.0
 41
1.0
 10
5.856679229799928
 20
-2.989331827776473
 30
0.0
 41
1.0
 10
8.048381827282764
 20
-4.79635557428344
 30
0.0
 41
1.0
 10
10.58248899211902
 20
-7.018497572588314
 30
0.0
 41
1.0
 10
13.21427513026542
 20
-9.429980248671027
 30
0.0
 41
1.0
 10
15.683924567659
 20
-11.73029441231103
 30
0.0
 41
1.0
 10
17.74048305607531
 20
-13.59538697457242
 30
0.0
 41
1.0
 10
19.16723852033078
 20
-14.73468684451323
 30
0.0
 41
1.0
 10
19.80643579739724
 20
-14.94428793722735
 30
0.0
 41
1.0
 10
19.58792709178656
 20
-14.16852423596435
 30
0.0
 41
1.0
 10
18.55208751861064
 20
-12.54701627816501
 30
0.0
 41
1.0
 10
16.82153652050696
 20
-10.34215761096844
 30
0.0
 41
1.0
 10
14.57992060390908
 20
-7.882464327157963
 30
0.0
 41
1.0
 10
12.04976094832737
 20
-5.499103581197561
 30
0.0
 41
1.0
 10
9.472414089146019
 20
-3.472518574751883
 30
0.0
 41
1.0
 10
7.087207379049662
 20
-1.958225360778297
 30
0.0
 41
1.0
 10
5.114184748309997
 20
-0.9847199688657175
 30
0.0
 41
1.0
 10
4.014398371003781
 20
-0.6087234907264487
 30
0.0
 41
1.0
 10
3.519974497914882
 20
-0.5257855605996403
 30
0.0
 41
1.0
 10
3.346392090842618
 20
-0.5540884175823058
 30
0.0
 41
1.0
 10
3.299044256746164
 20
-0.5891150458475459
 30
0.0
 41
1.0
  0
SPLINE
  5
81
330
70
100
AcDbEntity
  8
花火 v1_Sketch2
100
AcDbSpline
210
0.0
220
0.0
230
1.0
 70
    15
 71
     5
 72
    31
 73
    25
 74
     0
 42
0.000000001
 43
0.0000000001
 40
0.0
 40
0.0
 40
0.0
 40
0.0
 40
0.0
 40
0.0
 40
0.05
 40
0.1
 40
0.15
 40
0.2
 40
0.25
 40
0.3
 40
0.35
 40
0.4
 40
0.45
 40
0.5
 40
0.55
 40
0.6
 40
0.65
 40
0.7000000000000001
 40
0.7500000000000001
 40
0.8000000000000001
 40
0.8500000000000001
 40
0.9000000000000001
 40
0.9500000000000003
 40
1.0
 40
1.0
 40
1.0
 40
1.0
 40
1.0
 40
1.0
 10
0.9425840733560166
 20
-2.945575229237658
 30
0.0
 41
1.0
 10
0.8857224867753709
 20
-2.980536380033809
 30
0.0
 41
1.0
 10
0.7953451990271513
 20
-3.134995808298212
 30
0.0
 41
1.0
 10
0.7325469622586862
 20
-3.618699709237752
 30
0.0
 41
1.0
 10
0.7988185119940812
 20
-4.739036198462782
 30
0.0
 41
1.0
 10
1.116494168117918
 20
-6.776506728590028
 30
0.0
 41
1.0
 10
1.632958790688344
 20
-9.237796578685991
 30
0.0
 41
1.0
 10
2.29624233177301
 20
-11.87660785486596
 30
0.0
 41
1.0
 10
3.043196032979911
 20
-14.43695046826826
 30
0.0
 41
1.0
 10
3.803656436030664
 20
-16.67819082232731
 30
0.0
 41
1.0
 10
4.505884576335546
 20
-18.39201409636669
 30
0.0
 41
1.0
 10
5.08285897524632
 20
-19.41496336304753
 30
0.0
 41
1.0
 10
5.478385561677356
 20
-19.64340493608182
 30
0.0
 41
1.0
 10
5.653594604938875
 20
-19.04929013054685
 30
0.0
 41
1.0
 10
5.593612987342247
 20
-17.69726244754647
 30
0.0
 41
1.0
 10
5.304848253231563
 20
-15.7239549145438
 30
0.0
 41
1.0
 10
4.812741380218661
 20
-13.31921686471786
 30
0.0
 41
1.0
 10
4.160071132068537
 20
-10.70837101208623
 30
0.0
 41
1.0
 10
3.4052178198677
 20
-8.135101009337544
 30
0.0
 41
1.0
 10
2.621829223218822
 20
-5.845245546296511
 30
0.0
 41
1.0
 10
1.890549600028768
 20
-4.066423540426619
 30
0.0
 41
1.0
 10
1.409425923997049
 20
-3.202359142630371
 30
0.0
 41
1.0
 10
1.136514718511024
 20
-2.925228903521303
 30
0.0
 41
1.0
 10
0.9994456599366618
 20
-2.910614078441506
 30
0.0
 41
1.0
 10
0.9425840733560166
 20
-2.945575229237658
 30
0.0
 41
1.0
  0
SPLINE
  5
82
330
70
100
AcDbEntity
  8
花火 v1_Sketch2
100
AcDbSpline
210
0.0
220
0.0
230
1.0
 70
    15
 71
     5
 72
    31
 73
    25
 74
     0
 42
0.000000001
 43
0.0000000001
 40
0.0
 40
0.0
 40
0.0
 40
0.0
 40
0.0
 40
0.0
 40
0.05
 40
0.1
 40
0.15
 40
0.2
 40
0.25
 40
0.3
 40
0.35
 40
0.4
 40
0.45
 40
0.5
 40
0.55
 40
0.6
 40
0.65
 40
0.7000000000000001
 40
0.7500000000000001
 40
0.8000000000000001
 40
0.8500000000000001
 40
0.9000000000000001
 40
0.9500000000000003
 40
1.0
 40
1.0
 40
1.0
 40
1.0
 40
1.0
 40
1.0
 10
25.4497699806133
 20
13.07835401781517
 30
0.0
 41
1.0
 10
25.43024215850633
 20
13.16287033863131
 30
0.0
 41
1.0
 10
25.28899951617217
 20
13.30296183718952
 30
0.0
 41
1.0
 10
24.77153091824984
 20
13.42227316761058
 30
0.0
 41
1.0
 10
23.50241193189272
 20
13.3904554756531
 30
0.0
 41
1.0
 10
21.13612231252557
 20
13.03915787575845
 30
0.0
 41
1.0
 10
18.24688701517283
 20
12.40924867394687
 30
0.0
 41
1.0
 10
15.13075213061457
 20
11.55711412982289
 30
0.0
 41
1.0
 10
12.0918441894824
 20
10.56001255947768
 30
0.0
 41
1.0
 10
9.410158530769948
 20
9.514693714823641
 30
0.0
 41
1.0
 10
7.327317606279488
 20
8.526470419731408
 30
0.0
 41
1.0
 10
6.033479427781006
 20
7.69743690659633
 30
0.0
 41
1.0
 10
5.652424601996665
 20
7.114934023298213
 30
0.0
 41
1.0
 10
6.225654074163634
 20
6.839630495791862
 30
0.0
 41
1.0
 10
7.69426490917346
 20
6.892965758542773
 30
0.0
 41
1.0
 10
9.917941345770612
 20
7.263101965449312
 30
0.0
 41
1.0
 10
12.69235579298452
 20
7.910313829896238
 30
0.0
 41
1.0
 10
15.76561917035587
 20
8.771924178770531
 30
0.0
 41
1.0
 10
18.85250643607066
 20
9.766299687450167
 30
0.0
 41
1.0
 10
21.65178418106473
 20
10.79784354504074
 30
0.0
 41
1.0
 10
23.87702904168179
 20
11.76683719588681
 30
0.0
 41
1.0
 10
25.00395206365141
 20
12.4160822942037
 30
0.0
 41
1.0
 10
25.40616644881392
 20
12.79586391229268
 30
0.0
 41
1.0
 10
25.46929780272026
 20
12.99383769699903
 30
0.0
 41
1.0
 10
25.4497699806133
 20
13.07835401781517
 30
0.0
 41
1.0
  0
SPLINE
  5
83
330
70
100
AcDbEntity
  8
花火 v1_Sketch2
100
AcDbSpline
210
0.0
220
0.0
230
1.0
 70
    13
 71
     5
 72
    36
 73
    30
 74
     0
 42
0.000000001
 43
0.0000000001
 40
0.0
 40
0.0
 40
0.0
 40
0.0
 40
0.0
 40
0.0
 40
0.04
 40
0.08
 40
0.12
 40
0.16
 40
0.2
 40
0.24
 40
0.28
 40
0.32
 40
0.36
 40
0.4
 40
0.44
 40
0.4799999999999999
 40
0.52
 40
0.56
 40
0.6
 40
0.6400000000000001
 40
0.6800000000000001
 40
0.7200000000000001
 40
0.7600000000000002
 40
0.8000000000000001
 40
0.8400000000000002
 40
0.8800000000000002
 40
0.9200000000000002
 40
0.9600000000000003
 40
1.0
 40
1.0
 40
1.0
 40
1.0
 40
1.0
 40
1.0
 10
22.38637174220614
 20
-6.715911522661848
 30
0.0
 41
1.0
 10
22.85416540621869
 20
-6.927491963327346
 30
0.0
 41
1.0
 10
23.79271845887205
 20
-7.355386291151316
 30
0.0
 41
1.0
 10
25.19108011591877
 20
-8.004535278685731
 30
0.0
 41
1.0
 10
26.95898172733603
 20
-8.857908244357336
 30
0.0
 41
1.0
 10
28.8135381207868
 20
-9.84287230516691
 30
0.0
 41
1.0
 10
30.13865330092132
 20
-10.69157450725672
 30
0.0
 41
1.0
 10
30.80203258341657
 20
-11.35812300882205
 30
0.0
 41
1.0
 10
30.73320817509603
 20
-11.80689070946032
 30
0.0
 41
1.0
 10
29.94926593808209
 20
-12.01456340277633
 30
0.0
 41
1.0
 10
28.56645967880944
 20
-11.97156328370684
 30
0.0
 41
1.0
 10
26.759742993916
 20
-11.68091562151395
 30
0.0
 41
1.0
 10
24.73198587995296
 20
-11.15771383976488
 30
0.0
 41
1.0
 10
22.67903114029238
 20
-10.42863923761415
 30
0.0
 41
1.0
 10
20.75892219442824
 20
-9.531587712755019
 30
0.0
 41
1.0
 10
19.05319643237119
 20
-8.515758714772017
 30
0.0
 41
1.0
 10
17.58456648281923
 20
-7.439095170975583
 30
0.0
 41
1.0
 10
16.344226254119
 20
-6.365265017515192
 30
0.0
 41
1.0
 10
15.31574305853362
 20
-5.360976013753255
 30
0.0
 41
1.0
 10
14.4991596350102
 20
-4.493037463430751
 30
0.0
 41
1.0
 10
13.93725774917096
 20
-3.82589834680576
 30
0.0
 41
1.0
 10
13.73514537850871
 20
-3.417938914596729
 30
0.0
 41
1.0
 10
14.00547573815245
 20
-3.310382314530535
 30
0.0
 41
1.0
 10
14.80659920934868
 20
-3.513004185362591
 30
0.0
 41
1.0
 10
16.12853317579024
 20
-4.004413350135379
 30
0.0
 41
1.0
 10
17.90919337736156
 20
-4.74118015904733
 30
0.0
 41
1.0
 10
19.61428633940124
 20
-5.479355678059728
 30
0.0
 41
1.0
 10
20.9859564747967
 20
-6.085903647158318
 30
0.0
 41
1.0
 10
21.91857807819358
 20
-6.504331081996349
 30
0.0
 41
1.0
 10
22.38637174220614
 20
-6.715911522661848
 30
0.0
 41
1.0
  0
CIRCLE
  5
84
330
70
100
AcDbEntity
  8
花火 v1_Sketch2
100
AcDbCircle
 10
-30.6339823840716
 20
-3.416867265915684
 30
0.0
 40
1.699267603960477
  0
SPLINE
  5
85
330
70
100
AcDbEntity
  8
花火 v1_Sketch2
100
AcDbSpline
210
0.0
220
0.0
230
1.0
 70
    15
 71
     5
 72
    31
 73
    25
 74
     0
 42
0.000000001
 43
0.0000000001
 40
0.0
 40
0.0
 40
0.0
 40
0.0
 40
0.0
 40
0.0
 40
0.05
 40
0.1
 40
0.15
 40
0.2
 40
0.25
 40
0.3
 40
0.35
 40
0.4
 40
0.45
 40
0.5
 40
0.55
 40
0.6
 40
0.65
 40
0.7000000000000001
 40
0.7500000000000001
 40
0.8000000000000001
 40
0.8500000000000001
 40
0.9000000000000001
 40
0.9500000000000003
 40
1.0
 40
1.0
 40
1.0
 40
1.0
 40
1.0
 40
1.0
 10
8.011964623526388
 20
-10.25060179774703
 30
0.0
 41
1.0
 10
7.926452242851667
 20
-10.2820670138394
 30
0.0
 41
1.0
 10
7.798697185202233
 20
-10.41992981853544
 30
0.0
 41
1.0
 10
7.740908863039227
 20
-10.85003916778871
 30
0.0
 41
1.0
 10
7.935643586241986
 20
-11.84610463736675
 30
0.0
 41
1.0
 10
8.59412528369546
 20
-13.6656171012044
 30
0.0
 41
1.0
 10
9.592686417604596
 20
-15.87933237907507
 30
0.0
 41
1.0
 10
10.82960567433717
 20
-18.27503140952285
 30
0.0
 41
1.0
 10
12.18614910267617
 20
-20.62617965034187
 30
0.0
 41
1.0
 10
13.53594287234704
 20
-22.70924719915286
 30
0.0
 41
1.0
 10
14.75431192446789
 20
-24.32090174384753
 30
0.0
 41
1.0
 10
15.72762661113688
 20
-25.29570652771254
 30
0.0
 41
1.0
 10
16.36288490071256
 20
-25.52457841203122
 30
0.0
 41
1.0
 10
16.5977540859671
 20
-24.97456216551853
 30
0.0
 41
1.0
 10
16.41118195354452
 20
-23.70975117474732
 30
0.0
 41
1.0
 10
15.81925657984583
 20
-21.86753716972665
 30
0.0
 41
1.0
 10
14.87220652666634
 20
-19.63656663254478
 30
0.0
 41
1.0
 10
13.65151538605805
 20
-17.23583996232325
 30
0.0
 41
1.0
 10
12.26907651078697
 20
-14.89405691639322
 30
0.0
 41
1.0
 10
10.86286390873424
 20
-12.83061240749026
 30
0.0
 41
1.0
 10
9.578638646210626
 20
-11.24149990425527
 30
0.0
 41
1.0
 10
8.758987124712797
 20
-10.47542052532861
 30
0.0
 41
1.0
 10
8.311771469250546
 20
-10.23113852198122
 30
0.0
 41
1.0
 10
8.097477004201104
 20
-10.21913658165466
 30
0.0
 41
1.0
 10
8.011964623526388
 20
-10.25060179774703
 30
0.0
 41
1.0
  0
SPLINE
  5
86
330
70
100
AcDbEntity
  8
花火 v1_Sketch2
100
AcDbSpline
210
0.0
220
0.0
230
1.0
 70
    15
 71
     5
 72
    31
 73
    25
 74
     0
 42
0.000000001
 43
0.0000000001
 40
0.0
 40
0.0
 40
0.0
 40
0.0
 40
0.0
 40
0.0
 40
0.05
 40
0.1
 40
0.15
 40
0.2
 40
0.25
 40
0.3
 40
0.35
 40
0.4
 40
0.45
 40
0.5
 40
0.55
 40
0.6
 40
0.65
 40
0.7000000000000001
 40
0.7500000000000001
 40
0.8000000000000001
 40
0.8500000000000001
 40
0.9000000000000001
 40
0.9500000000000003
 40
1.0
 40
1.0
 40
1.0
 40
1.0
 40
1.0
 40
1.0
 10
-8.247610641865428
 20
4.595097357610722
 30
0.0
 41
1.0
 10
-8.283836053078175
 20
4.680904746776491
 30
0.0
 41
1.0
 10
-8.461182496857553
 20
4.822470363435711
 30
0.0
 41
1.0
 10
-9.040255927364819
 20
4.940706313888605
 30
0.0
 41
1.0
 10
-10.3995919824061
 20
4.896423331925686
 30
0.0
 41
1.0
 10
-12.86350958898627
 20
4.487781687073603
 30
0.0
 41
1.0
 10
-15.8035034820984
 20
3.733351802677618
 30
0.0
 41
1.0
 10
-18.89804835931788
 20
2.673299627289432
 30
0.0
 41
1.0
 10
-21.83103942659178
 20
1.386883211295659
 30
0.0
 41
1.0
 10
-24.3369889854247
 20
0.0062732962540568
 30
0.0
 41
1.0
 10
-26.21251470398443
 20
-1.301749651401652
 30
0.0
 41
1.0
 10
-27.31353136973292
 20
-2.368161425200804
 30
0.0
 41
1.0
 10
-27.55862729163264
 20
-3.049641235895626
 30
0.0
 41
1.0
 10
-26.93158916657497
 20
-3.2584237163424
 30
0.0
 41
1.0
 10
-25.48671919254609
 20
-2.993742295969159
 30
0.0
 41
1.0
 10
-23.34057330573269
 20
-2.319374738963056
 30
0.0
 41
1.0
 10
-20.66519829016272
 20
-1.340334251794054
 30
0.0
 41
1.0
 10
-17.68182868215772
 20
-0.1816182450539092
 30
0.0
 41
1.0
 10
-14.6575613743992
 20
1.034231292106537
 30
0.0
 41
1.0
 10
-11.89709674085359
 20
2.205350213471428
 30
0.0
 41
1.0
 10
-9.702302078534955
 20
3.246358707255935
 30
0.0
 41
1.0
 10
-8.608817191257918
 20
3.918947622936864
 30
0.0
 41
1.0
 10
-8.243830029581062
 20
4.307626028441094
 30
0.0
 41
1.0
 10
-8.211385230652679
 20
4.509289968444952
 30
0.0
 41
1.0
 10
-8.247610641865428
 20
4.595097357610722
 30
0.0
 41
1.0
  0
CIRCLE
  5
87
330
70
100
AcDbEntity
  8
花火 v1_Sketch2
100
AcDbCircle
 10
7.54067258684838
 20
-24.62500891642678
 30
0.0
 40
1.699267603960458
  0
SPLINE
  5
88
330
70
100
AcDbEntity
  8
花火 v1_Sketch2
100
AcDbSpline
210
0.0
220
0.0
230
1.0
 70
    13
 71
     5
 72
    36
 73
    30
 74
     0
 42
0.000000001
 43
0.0000000001
 40
0.0
 40
0.0
 40
0.0
 40
0.0
 40
0.0
 40
0.0
 40
0.04
 40
0.08
 40
0.12
 40
0.16
 40
0.2
 40
0.24
 40
0.28
 40
0.32
 40
0.36
 40
0.4
 40
0.44
 40
0.4799999999999999
 40
0.52
 40
0.56
 40
0.6
 40
0.6400000000000001
 40
0.6800000000000001
 40
0.7200000000000001
 40
0.7600000000000002
 40
0.8000000000000001
 40
0.8400000000000002
 40
0.8800000000000002
 40
0.9200000000000002
 40
0.9600000000000003
 40
1.0
 40
1.0
 40
1.0
 40
1.0
 40
1.0
 40
1.0
 10
13.43182304532366
 20
32.40132752161417
 30
0.0
 41
1.0
 10
13.56875253788938
 20
32.59165965976516
 30
0.0
 41
1.0
 10
13.8484467244075
 20
32.97090459516141
 30
0.0
 41
1.0
 10
14.28394127262119
 20
33.52986970869313
 30
0.0
 41
1.0
 10
14.88213688548289
 20
34.21760238718682
 30
0.0
 41
1.0
 10
15.59598123651452
 20
34.84792183997198
 30
0.0
 41
1.0
 10
16.19909333978071
 20
35.11417416217459
 30
0.0
 41
1.0
 10
16.61391176484435
 20
34.91509653167253
 30
0.0
 41
1.0
 10
16.77631752544321
 20
34.22592380900533
 30
0.0
 41
1.0
 10
16.64219574760406
 20
33.09160404420095
 30
0.0
 41
1.0
 10
16.19176895874985
 20
31.60705498406835
 30
0.0
 41
1.0
 10
15.43567201627955
 20
29.90245305705279
 30
0.0
 41
1.0
 10
14.41934834086939
 20
28.12727504595051
 30
0.0
 41
1.0
 10
13.23224541623704
 20
26.43462464778269
 30
0.0
 41
1.0
 10
11.99594736482762
 20
24.96892902994159
 30
0.0
 41
1.0
 10
10.84280694611864
 20
23.85500751640355
 30
0.0
 41
1.0
 10
9.898367082882602
 20
23.18696524041671
 30
0.0
 41
1.0
 10
9.260927079140596
 20
23.01553191657692
 30
0.0
 41
1.0
 10
8.984904658820186
 20
23.33818968227756
 30
0.0
 41
1.0
 10
9.05479288963008
 20
24.08043375748397
 30
0.0
 41
1.0
 10
9.394458213881183
 20
25.11065687886262
 30
0.0
 41
1.0
 10
9.902334679758251
 20
26.28016131163587
 30
0.0
 41
1.0
 10
10.47729797281224
 20
27.45369666524979
 30
0.0
 41
1.0
 10
11.05106232359384
 20
28.54769470020298
 30
0.0
 41
1.0
 10
11.60944010593591
 20
29.55414875187728
 30
0.0
 41
1.0
 10
12.16941929621326
 20
30.50503073822281
 30
0.0
 41
1.0
 10
12.64389203327789
 20
31.25717258456786
 30
0.0
 41
1.0
 10
13.02686976901317
 20
31.82891176625544
 30
0.0
 41
1.0
 10
13.29489355275794
 20
32.21099538346318
 30
0.0
 41
1.0
 10
13.43182304532366
 20
32.40132752161417
 30
0.0
 41
1.0
  0
SPLINE
  5
89
330
70
100
AcDbEntity
  8
花火 v1_Sketch2
100
AcDbSpline
210
0.0
220
0.0
230
1.0
 70
    15
 71
     5
 72
    31
 73
    25
 74
     0
 42
0.000000001
 43
0.0000000001
 40
0.0
 40
0.0
 40
0.0
 40
0.0
 40
0.0
 40
0.0
 40
0.05
 40
0.1
 40
0.15
 40
0.2
 40
0.25
 40
0.3
 40
0.35
 40
0.4
 40
0.45
 40
0.5
 40
0.55
 40
0.6
 40
0.65
 40
0.7000000000000001
 40
0.7500000000000001
 40
0.8000000000000001
 40
0.8500000000000001
 40
0.9000000000000001
 40
0.9500000000000003
 40
1.0
 40
1.0
 40
1.0
 40
1.0
 40
1.0
 40
1.0
 10
-2.592106201729151
 20
-20.61902660466357
 30
0.0
 41
1.0
 10
-2.567498506780352
 20
-20.07176728981094
 30
0.0
 41
1.0
 10
-2.496962351665149
 20
-18.99029175990546
 30
0.0
 41
1.0
 10
-2.328564178985273
 20
-17.43307527974824
 30
0.0
 41
1.0
 10
-1.993196173660166
 20
-15.58364419945488
 30
0.0
 41
1.0
 10
-1.453776106129307
 20
-13.85107990555502
 30
0.0
 41
1.0
 10
-0.8717076160963339
 20
-12.84844491214978
 30
0.0
 41
1.0
 10
-0.3231291063137204
 20
-12.6666627801107
 30
0.0
 41
1.0
 10
0.1338325745695915
 20
-13.32373189823765
 30
0.0
 41
1.0
 10
0.4694812786090465
 20
-14.75749314813273
 30
0.0
 41
1.0
 10
0.6730244843468492
 20
-16.84135838215387
 30
0.0
 41
1.0
 10
0.7465280950888271
 20
-19.39388990115173
 30
0.0
 41
1.0
 10
0.6984796908744379
 20
-22.19035625378187
 30
0.0
 41
1.0
 10
0.536372079198223
 20
-24.96897566239399
 30
0.0
 41
1.0
 10
0.2653835348407296
 20
-27.45018131675877
 30
0.0
 41
1.0
 10
-0.1062222583045569
 20
-29.36912488457633
 30
0.0
 41
1.0
 10
-0.5630842647056879
 20
-30.50620392541085
 30
0.0
 41
1.0
 10
-1.078548032241278
 20
-30.71702997390265
 30
0.0
 41
1.0
 10
-1.608850419440633
 20
-29.97058263412792
 30
0.0
 41
1.0
 10
-2.092189082185437
 20
-28.36750610825784
 30
0.0
 41
1.0
 10
-2.462544145204836
 20
-26.09770524146306
 30
0.0
 41
1.0
 10
-2.62111980707911
 20
-23.94845202737452
 30
0.0
 41
1.0
 10
-2.644608521357941
 20
-22.27384764902123
 30
0.0
 41
1.0
 10
-2.61671389667795
 20
-21.1662859195162
 30
0.0
 41
1.0
 10
-2.592106201729151
 20
-20.61902660466357
 30
0.0
 41
1.0
  0
CIRCLE
  5
8A
330
70
100
AcDbEntity
  8
花火 v1_Sketch2
100
AcDbCircle
 10
-22.38637174220617
 20
-17.79127438459542
 30
0.0
 40
1.840454238360969
  0
SPLINE
  5
8B
330
70
100
AcDbEntity
  8
花火 v1_Sketch2
100
AcDbSpline
210
0.0
220
0.0
230
1.0
 70
    15
 71
     5
 72
    31
 73
    25
 74
     0
 42
0.000000001
 43
0.0000000001
 40
0.0
 40
0.0
 40
0.0
 40
0.0
 40
0.0
 40
0.0
 40
0.05
 40
0.1
 40
0.15
 40
0.2
 40
0.25
 40
0.3
 40
0.35
 40
0.4
 40
0.45
 40
0.5
 40
0.55
 40
0.6
 40
0.65
 40
0.7000000000000001
 40
0.7500000000000001
 40
0.8000000000000001
 40
0.8500000000000001
 40
0.9000000000000001
 40
0.9500000000000003
 40
1.0
 40
1.0
 40
1.0
 40
1.0
 40
1.0
 40
1.0
 10
-33.93302664081776
 20
4.595097357610722
 30
0.0
 41
1.0
 10
-33.90732383262296
 20
4.470753785471283
 30
0.0
 41
1.0
 10
-33.80407038166892
 20
4.23469923770937
 30
0.0
 41
1.0
 10
-33.49512687292592
 20
3.924819696149821
 30
0.0
 41
1.0
 10
-32.77923754897539
 20
3.615720387586525
 30
0.0
 41
1.0
 10
-31.39906447726629
 20
3.407857327950827
 30
0.0
 41
1.0
 10
-29.5882544474039
 20
3.363227763219925
 30
0.0
 41
1.0
 10
-27.45328987466832
 20
3.458252145250281
 30
0.0
 41
1.0
 10
-25.18366116940868
 20
3.676121237988336
 30
0.0
 41
1.0
 10
-23.03273996132645
 20
4.00761100404382
 30
0.0
 41
1.0
 10
-21.26929650597631
 20
4.443549212267218
 30
0.0
 41
1.0
 10
-20.13810149685141
 20
4.969690849778645
 30
0.0
 41
1.0
 10
-19.81673211250881
 20
5.560525031758146
 30
0.0
 41
1.0
 10
-20.37122114867868
 20
6.173017030982746
 30
0.0
 41
1.0
 10
-21.71312338882191
 20
6.740753072795826
 30
0.0
 41
1.0
 10
-23.64771206363466
 20
7.188028867953093
 30
0.0
 41
1.0
 10
-25.91605003715784
 20
7.442814901443691
 30
0.0
 41
1.0
 10
-28.23808810532156
 20
7.450650112709907
 30
0.0
 41
1.0
 10
-30.35276057958896
 20
7.187667439584235
 30
0.0
 41
1.0
 10
-32.06296975937007
 20
6.676846561301706
 30
0.0
 41
1.0
 10
-33.26862418981987
 20
5.997516988164153
 30
0.0
 41
1.0
 10
-33.80060022849758
 20
5.404333580757754
 30
0.0
 41
1.0
 10
-33.95828723083776
 20
4.980760670545994
 30
0.0
 41
1.0
 10
-33.95872944901257
 20
4.719440929750159
 30
0.0
 41
1.0
 10
-33.93302664081776
 20
4.595097357610722
 30
0.0
 41
1.0
  0
SPLINE
  5
8C
330
70
100
AcDbEntity
  8
花火 v1_Sketch2
100
AcDbSpline
210
0.0
220
0.0
230
1.0
 70
    15
 71
     5
 72
    31
 73
    25
 74
     0
 42
0.000000001
 43
0.0000000001
 40
0.0
 40
0.0
 40
0.0
 40
0.0
 40
0.0
 40
0.0
 40
0.05
 40
0.1
 40
0.15
 40
0.2
 40
0.25
 40
0.3
 40
0.35
 40
0.4
 40
0.45
 40
0.5
 40
0.55
 40
0.6
 40
0.65
 40
0.7000000000000001
 40
0.7500000000000001
 40
0.8000000000000001
 40
0.8500000000000001
 40
0.9000000000000001
 40
0.9500000000000003
 40
1.0
 40
1.0
 40
1.0
 40
1.0
 40
1.0
 40
1.0
 10
-29.92704432905455
 20
22.50419475137566
 30
0.0
 41
1.0
 10
-29.99144591154611
 20
22.42232251432555
 30
0.0
 41
1.0
 10
-30.06958693143421
 20
22.22329745282657
 30
0.0
 41
1.0
 10
-30.03158480724542
 20
21.82284695729293
 30
0.0
 41
1.0
 10
-29.66548268144968
 20
21.10587046080013
 30
0.0
 41
1.0
 10
-28.7089623907878
 20
19.97777561816957
 30
0.0
 41
1.0
 10
-27.32134221757287
 20
18.70905426701184
 30
0.0
 41
1.0
 10
-25.61187549883894
 20
17.405415055578
 30
0.0
 41
1.0
 10
-23.73746475958722
 20
16.1856003682394
 30
0.0
 41
1.0
 10
-21.89232257862576
 20
15.17346988560983
 30
0.0
 41
1.0
 10
-20.2788836695573
 20
14.48266647171346
 30
0.0
 41
1.0
 10
-19.08382715042634
 20
14.20291171681742
 30
0.0
 41
1.0
 10
-18.45177495839919
 20
14.38505042660883
 30
0.0
 41
1.0
 10
-18.45875807205539
 20
15.02544341066732
 30
0.0
 41
1.0
 10
-19.0848076505148
 20
16.04974801619801
 30
0.0
 41
1.0
 10
-20.23839930639907
 20
17.33566854696374
 30
0.0
 41
1.0
 10
-21.77847598235673
 20
18.73389317354506
 30
0.0
 41
1.0
 10
-23.53625804867116
 20
20.08944719837343
 30
0.0
 41
1.0
 10
-25.3351749534484
 20
21.2611217610147
 30
0.0
 41
1.0
 10
-27.01337540922127
 20
22.1453598610601
 30
0.0
 41
1.0
 10
-28.43123801052362
 20
22.67783421993049
 30
0.0
 41
1.0
 10
-29.26522025481539
 20
22.79745608406958
 30
0.0
 41
1.0
 10
-29.68317743648482
 20
22.71453087512719
 30
0.0
 41
1.0
 10
-29.86264274656299
 20
22.58606698842577
 30
0.0
 41
1.0
 10
-29.92704432905455
 20
22.50419475137566
 30
0.0
 41
1.0
  0
CIRCLE
  5
8D
330
70
100
AcDbEntity
  8
花火 v1_Sketch2
100
AcDbCircle
 10
6.598088513492328
 20
34.75778770500428
 30
0.0
 40
1.666268975271228
  0
SPLINE
  5
8E
330
70
100
AcDbEntity
  8
花火 v1_Sketch2
100
AcDbSpline
210
0.0
220
0.0
230
1.0
 70
    15
 71
     5
 72
    31
 73
    25
 74
     0
 42
0.000000001
 43
0.0000000001
 40
0.0
 40
0.0
 40
0.0
 40
0.0
 40
0.0
 40
0.0
 40
0.05
 40
0.1
 40
0.15
 40
0.2
 40
0.25
 40
0.3
 40
0.35
 40
0.4
 40
0.45
 40
0.5
 40
0.55
 40
0.6
 40
0.65
 40
0.7000000000000001
 40
0.7500000000000001
 40
0.8000000000000001
 40
0.8500000000000001
 40
0.9000000000000001
 40
0.9500000000000003
 40
1.0
 40
1.0
 40
1.0
 40
1.0
 40
1.0
 40
1.0
 10
17.90909739376491
 20
24.62500891642676
 30
0.0
 41
1.0
 10
17.8549098021601
 20
24.70123266347988
 30
0.0
 41
1.0
 10
17.67952147337301
 20
24.77977649411052
 30
0.0
 41
1.0
 10
17.21796189084081
 20
24.67237996304931
 30
0.0
 41
1.0
 10
16.23226368235466
 20
24.08599228026755
 30
0.0
 41
1.0
 10
14.51169943428686
 20
22.7137690545271
 30
0.0
 41
1.0
 10
12.47454899644872
 20
20.85975028988118
 30
0.0
 41
1.0
 10
10.31792593355745
 20
18.71746761196065
 30
0.0
 41
1.0
 10
8.246689723207277
 20
16.49496491375508
 30
0.0
 41
1.0
 10
6.456593892359258
 20
14.39492341356198
 30
0.0
 41
1.0
 10
5.12080814405639
 20
12.60456702682797
 30
0.0
 41
1.0
 10
4.375595768797023
 20
11.28433142455661
 30
0.0
 41
1.0
 10
4.305331128468186
 20
10.55631727787679
 30
0.0
 41
1.0
 10
4.92635292244906
 20
10.49179939637552
 30
0.0
 41
1.0
 10
6.169535857742387
 20
11.09762463264116
 30
0.0
 41
1.0
 10
7.90190628180267
 20
12.32323563829838
 30
0.0
 41
1.0
 10
9.947130156031168
 20
14.06588311681252
 30
0.0
 41
1.0
 10
12.10474085067285
 20
16.17609863141797
 30
0.0
 41
1.0
 10
14.16970095900279
 20
18.45887810965848
 30
0.0
 41
1.0
 10
15.94898320878191
 20
20.68481127275826
 30
0.0
 41
1.0
 10
17.27330972475545
 20
22.61987211552515
 30
0.0
 41
1.0
 10
17.8630882953352
 20
23.76469757157044
 30
0.0
 41
1.0
 10
18.0046470230019
 20
24.32243401179186
 30
0.0
 41
1.0
 10
17.96328498536972
 20
24.54878516937365
 30
0.0
 41
1.0
 10
17.90909739376491
 20
24.62500891642676
 30
0.0
 41
1.0
  0
SPLINE
  5
8F
330
70
100
AcDbEntity
  8
花火 v1_Sketch2
100
AcDbSpline
210
0.0
220
0.0
230
1.0
 70
    13
 71
     5
 72
    41
 73
    35
 74
     0
 42
0.000000001
 43
0.0000000001
 40
0.0
 40
0.0
 40
0.0
 40
0.0
 40
0.0
 40
0.0
 40
0.0333333333333333
 40
0.0666666666666667
 40
0.1
 40
0.1333333333333333
 40
0.1666666666666666
 40
0.2
 40
0.2333333333333333
 40
0.2666666666666666
 40
0.3
 40
0.3333333333333333
 40
0.3666666666666666
 40
0.4
 40
0.4333333333333333
 40
0.4666666666666666
 40
0.5
 40
0.5333333333333333
 40
0.5666666666666666
 40
0.6
 40
0.6333333333333333
 40
0.6666666666666666
 40
0.7
 40
0.7333333333333333
 40
0.7666666666666666
 40
0.8
 40
0.8333333333333332
 40
0.8666666666666666
 40
0.9
 40
0.9333333333333332
 40
0.9666666666666666
 40
1.0
 40
1.0
 40
1.0
 40
1.0
 40
1.0
 40
1.0
 10
-0.7069380550170479
 20
41.82716825517464
 30
0.0
 41
1.0
 10
-0.7943279136766862
 20
41.82877854022447
 30
0.0
 41
1.0
 10
-0.968964336904292
 20
41.75177441636175
 30
0.0
 41
1.0
 10
-1.228093995914214
 20
41.39544707574337
 30
0.0
 41
1.0
 10
-1.560059041681209
 20
40.48178163316738
 30
0.0
 41
1.0
 10
-1.938600451630699
 20
38.85386938456996
 30
0.0
 41
1.0
 10
-2.270348934296782
 20
37.04484913133962
 30
0.0
 41
1.0
 10
-2.545795021202516
 20
35.337023061246
 30
0.0
 41
1.0
 10
-2.754178471954293
 20
33.91872714349494
 30
0.0
 41
1.0
 10
-2.880198426758405
 20
32.78564494844797
 30
0.0
 41
1.0
 10
-2.907128241324345
 20
31.78694970405905
 30
0.0
 41
1.0
 10
-2.822221253359284
 20
30.72269973071445
 30
0.0
 41
1.0
 10
-2.621422999247183
 20
29.42410254425621
 30
0.0
 41
1.0
 10
-2.314407284192272
 20
27.84041528961493
 30
0.0
 41
1.0
 10
-1.929715955207093
 20
26.12531184654618
 30
0.0
 41
1.0
 10
-1.506555953345873
 20
24.55215226267156
 30
0.0
 41
1.0
 10
-1.086538847427483
 20
23.42793362836432
 30
0.0
 41
1.0
 10
-0.7054109421044528
 20
23.00738743419147
 30
0.0
 41
1.0
 10
-0.384939798884073
 20
23.40852581160048
 30
0.0
 41
1.0
 10
-0.1241565036693359
 20
24.5216676046563
 30
0.0
 41
1.0
 10
0.0922442054503226
 20
26.09296951944402
 30
0.0
 41
1.0
 10
0.2849579715546704
 20
27.81351782041231
 30
0.0
 41
1.0
 10
0.4713959768902173
 20
29.40564248065589
 30
0.0
 41
1.0
 10
0.6568888206672881
 20
30.71049982196316
 30
0.0
 41
1.0
 10
0.8258862643878986
 20
31.77563232956441
 30
0.0
 41
1.0
 10
0.9505675087126645
 20
32.76959861861839
 30
0.0
 41
1.0
 10
0.9996667835272042
 20
33.89410725262789
 30
0.0
 41
1.0
 10
0.946700913911137
 20
35.30312625144057
 30
0.0
 41
1.0
 10
0.7796117942856579
 20
37.00573295791469
 30
0.0
 41
1.0
 10
0.5063726150740051
 20
38.81607840839634
 30
0.0
 41
1.0
 10
0.1478199055706201
 20
40.45202714776694
 30
0.0
 41
1.0
 10
-0.1842058791114692
 20
41.3764178010169
 30
0.0
 41
1.0
 10
-0.4446251849464619
 20
41.74211270606266
 30
0.0
 41
1.0
 10
-0.6195481963574093
 20
41.82555797012479
 30
0.0
 41
1.0
 10
-0.7069380550170479
 20
41.82716825517464
 30
0.0
 41
1.0
  0
SPLINE
  5
90
330
70
100
AcDbEntity
  8
花火 v1_Sketch2
100
AcDbSpline
210
0.0
220
0.0
230
1.0
 70
    13
 71
     5
 72
    31
 73
    25
 74
     0
 42
0.000000001
 43
0.0000000001
 40
0.0
 40
0.0
 40
0.0
 40
0.0
 40
0.0
 40
0.0
 40
0.05
 40
0.1
 40
0.15
 40
0.2
 40
0.25
 40
0.3
 40
0.35
 40
0.4
 40
0.45
 40
0.5
 40
0.55
 40
0.6
 40
0.65
 40
0.7000000000000001
 40
0.7500000000000001
 40
0.8000000000000001
 40
0.8500000000000001
 40
0.9000000000000001
 40
0.9500000000000003
 40
1.0
 40
1.0
 40
1.0
 40
1.0
 40
1.0
 40
1.0
 10
-8.954548696882476
 20
32.87261955829219
 30
0.0
 41
1.0
 10
-9.016392907793207
 20
32.85743685249132
 30
0.0
 41
1.0
 10
-9.10665180624986
 20
32.7341174012632
 30
0.0
 41
1.0
 10
-9.138756548348569
 20
32.27091259251544
 30
0.0
 41
1.0
 10
-8.972425627432457
 20
31.1159243215131
 30
0.0
 41
1.0
 10
-8.447029367565949
 20
28.89620132408531
 30
0.0
 41
1.0
 10
-7.663880395661346
 20
26.0839799384294
 30
0.0
 41
1.0
 10
-6.703121697954529
 20
22.91785155768373
 30
0.0
 41
1.0
 10
-5.657493278882117
 20
19.68860716236825
 30
0.0
 41
1.0
 10
-4.624882066285113
 20
16.72162730637661
 30
0.0
 41
1.0
 10
-3.701122797139991
 20
14.33559476285783
 30
0.0
 41
1.0
 10
-2.972721179148953
 20
12.8065313016662
 30
0.0
 41
1.0
 10
-2.509426520599209
 20
12.32877309347691
 30
0.0
 41
1.0
 10
-2.356358382968075
 20
12.97478004858945
 30
0.0
 41
1.0
 10
-2.525859402887924
 20
14.65357213354805
 30
0.0
 41
1.0
 10
-3.001598229562643
 20
17.15545955408336
 30
0.0
 41
1.0
 10
-3.741996477403443
 20
20.19269690546246
 30
0.0
 41
1.0
 10
-4.682896972640969
 20
23.43995959819181
 30
0.0
 41
1.0
 10
-5.740397905421504
 20
26.57169877500972
 30
0.0
 41
1.0
 10
-6.811580465667526
 20
29.30455841492801
 30
0.0
 41
1.0
 10
-7.785458667407612
 20
31.40897032127675
 30
0.0
 41
1.0
 10
-8.402616088402602
 20
32.45183208817557
 30
0.0
 41
1.0
 10
-8.735586540785472
 20
32.82521363606841
 30
0.0
 41
1.0
 10
-8.892704485971744
 20
32.88780226409305
 30
0.0
 41
1.0
 10
-8.954548696882476
 20
32.87261955829219
 30
0.0
 41
1.0
  0
CIRCLE
  5
91
330
70
100
AcDbEntity
  8
花火 v1_Sketch2
100
AcDbCircle
 10
20.50120359549403
 20
27.2171151181559
 30
0.0
 40
1.433378770766534
  0
CIRCLE
  5
92
330
70
100
AcDbEntity
  8
花火 v1_Sketch2
100
AcDbCircle
 10
28.98446025569846
 20
13.31400003615417
 30
0.0
 40
1.899838937209417
  0
CIRCLE
  5
93
330
70
100
AcDbEntity
  8
花火 v1_Sketch2
100
AcDbCircle
 10
-22.38637174220617
 20
26.74582308147787
 30
0.0
 40
1.715528908479418
  0
CIRCLE
  5
94
330
70
100
AcDbEntity
  8
花火 v1_Sketch2
100
AcDbCircle
 10
28.98446025569846
 20
-2.709929210898653
 30
0.0
 40
2.172548942260576
  0
SPLINE
  5
95
330
70
100
AcDbEntity
  8
花火 v1_Sketch2
100
AcDbSpline
210
0.0
220
0.0
230
1.0
 70
    15
 71
     5
 72
    31
 73
    25
 74
     0
 42
0.000000001
 43
0.0000000001
 40
0.0
 40
0.0
 40
0.0
 40
0.0
 40
0.0
 40
0.0
 40
0.05
 40
0.1
 40
0.15
 40
0.2
 40
0.25
 40
0.3
 40
0.35
 40
0.4
 40
0.45
 40
0.5
 40
0.55
 40
0.6
 40
0.65
 40
0.7000000000000001
 40
0.7500000000000001
 40
0.8000000000000001
 40
0.8500000000000001
 40
0.9000000000000001
 40
0.9500000000000003
 40
1.0
 40
1.0
 40
1.0
 40
1.0
 40
1.0
 40
1.0
 10
-27.33493812732544
 20
12.13576994445912
 30
0.0
 41
1.0
 10
-27.36661714993829
 20
12.07173335513672
 30
0.0
 41
1.0
 10
-27.34995386210945
 20
11.91897762035108
 30
0.0
 41
1.0
 10
-27.08281139823299
 20
11.61892880967418
 30
0.0
 41
1.0
 10
-26.24113762545983
 20
11.09473646866149
 30
0.0
 41
1.0
 10
-24.4246840673634
 20
10.29557407596092
 30
0.0
 41
1.0
 10
-21.95103714957385
 20
9.427402646257165
 30
0.0
 41
1.0
 10
-19.00297559477716
 20
8.570622568769048
 30
0.0
 41
1.0
 10
-15.86046512684318
 20
7.804678426959074
 30
0.0
 41
1.0
 10
-12.8610416339089
 20
7.202576745464642
 30
0.0
 41
1.0
 10
-10.35146037051275
 20
6.825431872905811
 30
0.0
 41
1.0
 10
-8.642486774030743
 20
6.716636086609261
 30
0.0
 41
1.0
 10
-7.962050690898516
 20
6.895776486473691
 30
0.0
 41
1.0
 10
-8.405932601203478
 20
7.351775047171042
 30
0.0
 41
1.0
 10
-9.889791227788158
 20
8.036178018299171
 30
0.0
 41
1.0
 10
-12.20197253546868
 20
8.874955961769458
 30
0.0
 41
1.0
 10
-15.04940264184347
 20
9.77898029459601
 30
0.0
 41
1.0
 10
-18.10501177087951
 20
10.65478113914162
 30
0.0
 41
1.0
 10
-21.0496863589688
 20
11.41433590375735
 30
0.0
 41
1.0
 10
-23.6243761650164
 20
11.98685774377892
 30
0.0
 41
1.0
 10
-25.64228272267234
 20
12.32326058969807
 30
0.0
 41
1.0
 10
-26.70683019281517
 20
12.38110296169364
 30
0.0
 41
1.0
 10
-27.15987972643233
 20
12.30319715628548
 30
0.0
 41
1.0
 10
-27.30325910471258
 20
12.19980653378151
 30
0.0
 41
1.0
 10
-27.33493812732544
 20
12.13576994445912
 30
0.0
 41
1.0
  0
SPLINE
  5
96
330
70
100
AcDbEntity
  8
花火 v1_Sketch2
100
AcDbSpline
210
0.0
220
0.0
230
1.0
 70
    15
 71
     5
 72
    36
 73
    30
 74
     0
 42
0.000000001
 43
0.0000000001
 40
0.0
 40
0.0
 40
0.0
 40
0.0
 40
0.0
 40
0.0
 40
0.04
 40
0.08
 40
0.12
 40
0.16
 40
0.2
 40
0.24
 40
0.28
 40
0.32
 40
0.36
 40
0.4
 40
0.44
 40
0.4799999999999999
 40
0.52
 40
0.56
 40
0.6
 40
0.6400000000000001
 40
0.6800000000000001
 40
0.7200000000000001
 40
0.7600000000000002
 40
0.8000000000000001
 40
0.8400000000000002
 40
0.8800000000000002
 40
0.9200000000000002
 40
0.9600000000000003
 40
1.0
 40
1.0
 40
1.0
 40
1.0
 40
1.0
 40
1.0
 10
-18.61603544878198
 20
-24.62500891642678
 30
0.0
 41
1.0
 10
-18.48246470754606
 20
-24.60741394915837
 30
0.0
 41
1.0
 10
-18.17898778122035
 20
-24.51383840580048
 30
0.0
 41
1.0
 10
-17.62416036631583
 20
-24.20705554703816
 30
0.0
 41
1.0
 10
-16.73619736858327
 20
-23.5229876320284
 30
0.0
 41
1.0
 10
-15.54020301425891
 20
-22.41504026534912
 30
0.0
 41
1.0
 10
-14.41971688385315
 20
-21.26925418117257
 30
0.0
 41
1.0
 10
-13.50229261401913
 20
-20.25592123298363
 30
0.0
 41
1.0
 10
-12.85097779161931
 20
-19.45291030491226
 30
0.0
 41
1.0
 10
-12.42197814594851
 20
-18.77949397857064
 30
0.0
 41
1.0
 10
-12.10671090057036
 20
-18.06311878279651
 30
0.0
 41
1.0
 10
-11.7902962944905
 20
-17.13217941012383
 30
0.0
 41
1.0
 10
-11.40476224998405
 20
-15.90065776914726
 30
0.0
 41
1.0
 10
-10.98299095566629
 20
-14.45401003656344
 30
0.0
 41
1.0
 10
-10.6205798334573
 20
-12.98654544317504
 30
0.0
 41
1.0
 10
-10.44005890524726
 20
-11.74274435829523
 30
0.0
 41
1.0
 10
-10.55565381967159
 20
-10.95945008575887
 30
0.0
 41
1.0
 10
-11.03527365043124
 20
-10.80389314338118
 30
0.0
 41
1.0
 10
-11.87058928861248
 20
-11.32410607189039
 30
0.0
 41
1.0
 10
-12.99820940800335
 20
-12.47738865059103
 30
0.0
 41
1.0
 10
-14.31421098944361
 20
-14.1486424013679
 30
0.0
 41
1.0
 10
-15.69076279834774
 20
-16.17147063688851
 30
0.0
 41
1.0
 10
-16.99111276668488
 20
-18.34727747839471
 30
0.0
 41
1.0
 10
-18.08587375810494
 20
-20.46446192911742
 30
0.0
 41
1.0
 10
-18.86609299776093
 20
-22.31781569387833
 30
0.0
 41
1.0
 10
-19.25104042418755
 20
-23.7292655984079
 30
0.0
 41
1.0
 10
-19.20822064885314
 20
-24.40072058878041
 30
0.0
 41
1.0
 10
-18.98041222863586
 20
-24.61940820941093
 30
0.0
 41
1.0
 10
-18.7496061900179
 20
-24.64260388369519
 30
0.0
 41
1.0
 10
-18.61603544878198
 20
-24.62500891642678
 30
0.0
 41
1.0
  0
SPLINE
  5
97
330
70
100
AcDbEntity
  8
花火 v1_Sketch2
100
AcDbSpline
210
0.0
220
0.0
230
1.0
 70
    15
 71
     5
 72
    31
 73
    25
 74
     0
 42
0.000000001
 43
0.0000000001
 40
0.0
 40
0.0
 40
0.0
 40
0.0
 40
0.0
 40
0.0
 40
0.05
 40
0.1
 40
0.15
 40
0.2
 40
0.25
 40
0.3
 40
0.35
 40
0.4
 40
0.45
 40
0.5
 40
0.55
 40
0.6
 40
0.65
 40
0.7000000000000001
 40
0.7500000000000001
 40
0.8000000000000001
 40
0.8500000000000001
 40
0.9000000000000001
 40
0.9500000000000003
 40
1.0
 40
1.0
 40
1.0
 40
1.0
 40
1.0
 40
1.0
 10
-19.32297350379901
 20
23.91807086140973
 30
0.0
 41
1.0
 10
-19.38695954199015
 20
23.87258249474361
 30
0.0
 41
1.0
 10
-19.47052222741416
 20
23.72358080028899
 30
0.0
 41
1.0
 10
-19.45914773812377
 20
23.32814978494997
 30
0.0
 41
1.0
 10
-19.15361287954278
 20
22.47436434093338
 30
0.0
 41
1.0
 10
-18.25658987419483
 20
20.94609793275476
 30
0.0
 41
1.0
 10
-16.85266346292392
 20
19.07771090590635
 30
0.0
 41
1.0
 10
-15.01521835986729
 20
17.0253776393615
 30
0.0
 41
1.0
 10
-12.91790888581932
 20
14.98133238845071
 30
0.0
 41
1.0
 10
-10.80175799479955
 20
13.15335840920685
 30
0.0
 41
1.0
 10
-8.931690200400639
 20
11.74082127932896
 30
0.0
 41
1.0
 10
-7.557395558491366
 20
10.91168518047221
 30
0.0
 41
1.0
 10
-6.872180455748402
 20
10.77833937500995
 30
0.0
 41
1.0
 10
-6.971314502768414
 20
11.3724051163474
 30
0.0
 41
1.0
 10
-7.808812217271704
 20
12.61826322828764
 30
0.0
 41
1.0
 10
-9.238672060042388
 20
14.36334306827594
 30
0.0
 41
1.0
 10
-11.05299656882401
 20
16.4061950337609
 30
0.0
 41
1.0
 10
-13.02068528340744
 20
18.52453869021057
 30
0.0
 41
1.0
 10
-14.92186987792849
 20
20.50090493006156
 30
0.0
 41
1.0
 10
-16.59105080513887
 20
22.15279084700392
 30
0.0
 41
1.0
 10
-17.93206452489719
 20
23.34835817906838
 30
0.0
 41
1.0
 10
-18.69829596893141
 20
23.86971736552104
 30
0.0
 41
1.0
 10
-19.08660599826732
 20
23.99651100028572
 30
0.0
 41
1.0
 10
-19.25898746560787
 20
23.96355922807586
 30
0.0
 41
1.0
 10
-19.32297350379901
 20
23.91807086140973
 30
0.0
 41
1.0
  0
SPLINE
  5
98
330
70
100
AcDbEntity
  8
花火 v1_Sketch2
100
AcDbSpline
210
0.0
220
0.0
230
1.0
 70
    15
 71
     5
 72
    31
 73
    25
 74
     0
 42
0.000000001
 43
0.0000000001
 40
0.0
 40
0.0
 40
0.0
 40
0.0
 40
0.0
 40
0.0
 40
0.05
 40
0.1
 40
0.15
 40
0.2
 40
0.25
 40
0.3
 40
0.35
 40
0.4
 40
0.45
 40
0.5
 40
0.55
 40
0.6
 40
0.65
 40
0.7000000000000001
 40
0.7500000000000001
 40
0.8000000000000001
 40
0.8500000000000001
 40
0.9000000000000001
 40
0.9500000000000003
 40
1.0
 40
1.0
 40
1.0
 40
1.0
 40
1.0
 40
1.0
 10
6.833734531831332
 20
3.652513284254688
 30
0.0
 41
1.0
 10
6.808668450423654
 20
3.582162219596539
 30
0.0
 41
1.0
 10
6.838973336401363
 20
3.413818025549946
 30
0.0
 41
1.0
 10
7.127015350085764
 20
3.08184437086062
 30
0.0
 41
1.0
 10
7.987525809308002
 20
2.505812618468862
 30
0.0
 41
1.0
 10
9.773085804973991
 20
1.663544758948089
 30
0.0
 41
1.0
 10
12.12642746401249
 20
0.8134313571764815
 30
0.0
 41
1.0
 10
14.85248550009218
 20
0.0640930131993151
 30
0.0
 41
1.0
 10
17.70273810057071
 20
-0.5058610369169072
 30
0.0
 41
1.0
 10
20.38820922304026
 20
-0.8591592502357505
 30
0.0
 41
1.0
 10
22.61867084176304
 20
-0.9871432048734668
 30
0.0
 41
1.0
 10
24.13597954353849
 20
-0.903009264588594
 30
0.0
 41
1.0
 10
24.75072369722138
 20
-0.6332786506722615
 30
0.0
 41
1.0
 10
24.37876963451661
 20
-0.2105991607669538
 30
0.0
 41
1.0
 10
23.08149824653487
 20
0.3338233826567689
 30
0.0
 41
1.0
 10
21.02836187741704
 20
0.9673527658359441
 30
0.0
 41
1.0
 10
18.46060067551387
 20
1.653036701170448
 30
0.0
 41
1.0
 10
15.65615640991478
 20
2.346201955955747
 30
0.0
 41
1.0
 10
12.89686303687324
 20
2.991897447994413
 30
0.0
 41
1.0
 10
10.43182958594489
 20
3.519673392439055
 30
0.0
 41
1.0
 10
8.467621798478282
 20
3.855020068771334
 30
0.0
 41
1.0
 10
7.425261250299914
 20
3.919119485615162
 30
0.0
 41
1.0
 10
6.989369824847426
 20
3.835924413498839
 30
0.0
 41
1.0
 10
6.858800613239008
 20
3.722864348912835
 30
0.0
 41
1.0
 10
6.833734531831332
 20
3.652513284254688
 30
0.0
 41
1.0
  0
SPLINE
  5
99
330
70
100
AcDbEntity
  8
花火 v1_Sketch2
100
AcDbSpline
210
0.0
220
0.0
230
1.0
 70
    15
 71
     5
 72
    26
 73
    20
 74
     0
 42
0.000000001
 43
0.0000000001
 40
0.0
 40
0.0
 40
0.0
 40
0.0
 40
0.0
 40
0.0
 40
0.0666666666666667
 40
0.1333333333333333
 40
0.2
 40
0.2666666666666666
 40
0.3333333333333333
 40
0.4
 40
0.4666666666666666
 40
0.5333333333333333
 40
0.6
 40
0.6666666666666666
 40
0.7333333333333333
 40
0.8
 40
0.8666666666666666
 40
0.9333333333333332
 40
1.0
 40
1.0
 40
1.0
 40
1.0
 40
1.0
 40
1.0
 10
-3.063398238407159
 20
-1.767345137542601
 30
0.0
 41
1.0
 10
-3.178014845708827
 20
-1.924558836188966
 30
0.0
 41
1.0
 10
-3.451947553621663
 20
-2.403836228162357
 30
0.0
 41
1.0
 10
-3.988180197051441
 20
-3.605520561576389
 30
0.0
 41
1.0
 10
-4.899064655573938
 20
-6.050567943676711
 30
0.0
 41
1.0
 10
-6.166631457967186
 20
-9.95315271346816
 30
0.0
 41
1.0
 10
-7.341059381385078
 20
-14.01046225478446
 30
0.0
 41
1.0
 10
-8.210161048591738
 20
-17.50934348890927
 30
0.0
 41
1.0
 10
-8.608407653621782
 20
-19.83025030770535
 30
0.0
 41
1.0
 10
-8.451108493568813
 20
-20.5552503502714
 30
0.0
 41
1.0
 10
-7.782580662951912
 20
-19.61050305549267
 30
0.0
 41
1.0
 10
-6.744097726133899
 20
-17.21153359811257
 30
0.0
 41
1.0
 10
-5.528612447923679
 20
-13.77636552537562
 30
0.0
 41
1.0
 10
-4.34236543545349
 20
-9.861943936717445
 30
0.0
 41
1.0
 10
-3.367560872940892
 20
-6.097705680055542
 30
0.0
 41
1.0
 10
-2.752814149006104
 20
-3.102656280549779
 30
0.0
 41
1.0
 10
-2.630310706167284
 20
-1.742519654996059
 30
0.0
 41
1.0
 10
-2.764247909811654
 20
-1.460554036284171
 30
0.0
 41
1.0
 10
-2.948781631105491
 20
-1.610131438896237
 30
0.0
 41
1.0
 10
-3.063398238407159
 20
-1.767345137542601
 30
0.0
 41
1.0
  0
CIRCLE
  5
9A
330
70
100
AcDbEntity
  8
花火 v1_Sketch2
100
AcDbCircle
 10
-30.6339823840716
 20
12.84270799947615
 30
0.0
 40
1.84045423836095
  0
CIRCLE
  5
9B
330
70
100
AcDbEntity
  8
花火 v1_Sketch2
100
AcDbCircle
 10
-9.661486751899523
 20
36.40730983337738
 30
0.0
 40
1.413876110034095
  0
SPLINE
  5
9C
330
70
100
AcDbEntity
  8
花火 v1_Sketch2
100
AcDbSpline
210
0.0
220
0.0
230
1.0
 70
    15
 71
     5
 72
    31
 73
    25
 74
     0
 42
0.000000001
 43
0.0000000001
 40
0.0
 40
0.0
 40
0.0
 40
0.0
 40
0.0
 40
0.0
 40
0.05
 40
0.1
 40
0.15
 40
0.2
 40
0.25
 40
0.3
 40
0.35
 40
0.4
 40
0.45
 40
0.5
 40
0.55
 40
0.6
 40
0.65
 40
0.7000000000000001
 40
0.7500000000000001
 40
0.8000000000000001
 40
0.8500000000000001
 40
0.9000000000000001
 40
0.9500000000000003
 40
1.0
 40
1.0
 40
1.0
 40
1.0
 40
1.0
 40
1.0
 10
-6.833734531831368
 20
-0.3534690275085239
 30
0.0
 41
1.0
 10
-6.899493054967661
 20
-0.3092745483126684
 30
0.0
 41
1.0
 10
-7.101621949442503
 20
-0.2915531289349411
 30
0.0
 41
1.0
 10
-7.613518739613075
 20
-0.479133085559861
 30
0.0
 41
1.0
 10
-8.683636592261574
 20
-1.147136291797452
 30
0.0
 41
1.0
 10
-10.52772061477226
 20
-2.578718698257708
 30
0.0
 41
1.0
 10
-12.69377397568539
 20
-4.453123861367471
 30
0.0
 41
1.0
 10
-14.97169520020431
 20
-6.581759900402861
 30
0.0
 41
1.0
 10
-17.1441373824081
 20
-8.759153884310084
 30
0.0
 41
1.0
 10
-19.00556840504168
 20
-10.78122011713578
 30
0.0
 41
1.0
 10
-20.37698731517572
 20
-12.459629180982
 30
0.0
 41
1.0
 10
-21.11955993625709
 20
-13.63509179661158
 30
0.0
 41
1.0
 10
-21.14961173395347
 20
-14.19167806797276
 30
0.0
 41
1.0
 10
-20.4546888300856
 20
-14.07197561140084
 30
0.0
 41
1.0
 10
-19.11076086074382
 20
-13.29321371172155
 30
0.0
 41
1.0
 10
-17.259703405021
 20
-11.93372755322744
 30
0.0
 41
1.0
 10
-15.08854692908333
 20
-10.12088276901157
 30
0.0
 41
1.0
 10
-12.80938733401086
 20
-8.020168584755657
 30
0.0
 41
1.0
 10
-10.64021620757788
 20
-5.824598222986812
 30
0.0
 41
1.0
 10
-8.785098766954593
 20
-3.746087058214669
 30
0.0
 41
1.0
 10
-7.42066773200404
 20
-1.995034731554972
 30
0.0
 41
1.0
 10
-6.830680654273765
 20
-1.005147898610974
 30
0.0
 41
1.0
 10
-6.707070810624738
 20
-0.5567200041100734
 30
0.0
 41
1.0
 10
-6.767976008695073
 20
-0.3976635067043794
 30
0.0
 41
1.0
 10
-6.833734531831368
 20
-0.3534690275085239
 30
0.0
 41
1.0
  0
SPLINE
  5
9D
330
70
100
AcDbEntity
  8
花火 v1_Sketch2
100
AcDbSpline
210
0.0
220
0.0
230
1.0
 70
    15
 71
     5
 72
    36
 73
    30
 74
     0
 42
0.000000001
 43
0.0000000001
 40
0.0
 40
0.0
 40
0.0
 40
0.0
 40
0.0
 40
0.0
 40
0.04
 40
0.08
 40
0.12
 40
0.16
 40
0.2
 40
0.24
 40
0.28
 40
0.32
 40
0.36
 40
0.4
 40
0.44
 40
0.4799999999999999
 40
0.52
 40
0.56
 40
0.6
 40
0.6400000000000001
 40
0.6800000000000001
 40
0.7200000000000001
 40
0.7600000000000002
 40
0.8000000000000001
 40
0.8400000000000002
 40
0.8800000000000002
 40
0.9200000000000002
 40
0.9600000000000003
 40
1.0
 40
1.0
 40
1.0
 40
1.0
 40
1.0
 40
1.0
 10
20.0
 20
20.0
 30
0.0
 41
1.0
 10
20.27161769980215
 20
20.19079253066178
 30
0.0
 41
1.0
 10
20.80633721809293
 20
20.5614367506412
 30
0.0
 41
1.0
 10
21.57574545431242
 20
21.08006178062357
 30
0.0
 41
1.0
 10
22.52693243816436
 20
21.68735854210046
 30
0.0
 41
1.0
 10
23.62713851381838
 20
22.30948457392817
 30
0.0
 41
1.0
 10
24.69783896700868
 20
22.81003868958606
 30
0.0
 41
1.0
 10
25.7852549041614
 20
23.20094417232983
 30
0.0
 41
1.0
 10
26.88886724833988
 20
23.4765595385119
 30
0.0
 41
1.0
 10
27.91956954016561
 20
23.59564342574521
 30
0.0
 41
1.0
 10
28.73562516501193
 20
23.50127871131249
 30
0.0
 41
1.0
 10
29.1858806812612
 20
23.14386506688891
 30
0.0
 41
1.0
 10
29.15487384921238
 20
22.50648739752385
 30
0.0
 41
1.0
 10
28.59302792400181
 20
21.61910755963405
 30
0.0
 41
1.0
 10
27.50576963916661
 20
20.54329077797707
 30
0.0
 41
1.0
 10
25.95190169593661
 20
19.36308256687982
 30
0.0
 41
1.0
 10
24.03834760724354
 20
18.17398435749628
 30
0.0
 41
1.0
 10
21.91902170149422
 20
17.07252951585883
 30
0.0
 41
1.0
 10
19.78691276342744
 20
16.14703447119187
 30
0.0
 41
1.0
 10
17.84704021797563
 20
15.47305908713452
 30
0.0
 41
1.0
 10
16.29310502143222
 20
15.10788107188274
 30
0.0
 41
1.0
 10
15.28215588307837
 20
15.0849341059172
 30
0.0
 41
1.0
 10
14.91058904757046
 20
15.40821355756993
 30
0.0
 41
1.0
 10
15.18647457093989
 20
16.04544837409185
 30
0.0
 41
1.0
 10
16.00891890834333
 20
16.92355414883461
 30
0.0
 41
1.0
 10
17.21330173003435
 20
17.94682086141486
 30
0.0
 41
1.0
 10
18.33057985123612
 20
18.79958896458814
 30
0.0
 41
1.0
 10
19.17663101928
 20
19.41668156667049
 30
0.0
 41
1.0
 10
19.72838230019785
 20
19.80920746933822
 30
0.0
 41
1.0
 10
20.0
 20
20.0
 30
0.0
 41
1.0
  0
SPLINE
  5
9E
330
70
100
AcDbEntity
  8
花火 v1_Sketch2
100
AcDbSpline
210
0.0
220
0.0
230
1.0
 70
    15
 71
     5
 72
    31
 73
    25
 74
     0
 42
0.000000001
 43
0.0000000001
 40
0.0
 40
0.0
 40
0.0
 40
0.0
 40
0.0
 40
0.0
 40
0.05
 40
0.1
 40
0.15
 40
0.2
 40
0.25
 40
0.3
 40
0.35
 40
0.4
 40
0.45
 40
0.5
 40
0.55
 40
0.6
 40
0.65
 40
0.7000000000000001
 40
0.7500000000000001
 40
0.8000000000000001
 40
0.8500000000000001
 40
0.9000000000000001
 40
0.9500000000000003
 40
1.0
 40
1.0
 40
1.0
 40
1.0
 40
1.0
 40
1.0
 10
5.419858421797272
 20
31.22309742991911
 30
0.0
 41
1.0
 10
5.363110339138803
 20
31.23275476169153
 30
0.0
 41
1.0
 10
5.2316923333502
 20
31.16966697651254
 30
0.0
 41
1.0
 10
4.983547730079702
 20
30.82737113773831
 30
0.0
 41
1.0
 10
4.56364631298134
 20
29.89317616338481
 30
0.0
 41
1.0
 10
3.931450308516637
 20
28.04970188927255
 30
0.0
 41
1.0
 10
3.240495137459811
 20
25.70948251022227
 30
0.0
 41
1.0
 10
2.545794032336216
 20
23.09266224815937
 30
0.0
 41
1.0
 10
1.90805402306988
 20
20.44432356303387
 30
0.0
 41
1.0
 10
1.392622268410873
 20
18.01847268338897
 30
0.0
 41
1.0
 10
1.060594225603706
 20
16.05549756980954
 30
0.0
 41
1.0
 10
0.9600925961543328
 20
14.75954533800937
 30
0.0
 41
1.0
 10
1.117137729829438
 20
14.27503542819146
 30
0.0
 41
1.0
 10
1.526089567204601
 20
14.66188020746028
 30
0.0
 41
1.0
 10
2.139573881606154
 20
15.86928222253306
 30
0.0
 41
1.0
 10
2.8826131235673
 20
17.76150294854297
 30
0.0
 41
1.0
 10
3.665979220518396
 20
20.14164500953949
 30
0.0
 41
1.0
 10
4.399679826325731
 20
22.77435683883098
 30
0.0
 41
1.0
 10
5.005541517754556
 20
25.40742609216684
 30
0.0
 41
1.0
 10
5.432155924832287
 20
27.79356102373283
 30
0.0
 41
1.0
 10
5.652809185689582
 20
29.70764310848089
 30
0.0
 41
1.0
 10
5.659028868326006
 20
30.71239678613471
 30
0.0
 41
1.0
 10
5.572180829301015
 20
31.11172298587803
 30
0.0
 41
1.0
 10
5.476606504455739
 20
31.21344009814669
 30
0.0
 41
1.0
 10
5.419858421797272
 20
31.22309742991911
 30
0.0
 41
1.0
  0
SPLINE
  5
9F
330
70
100
AcDbEntity
  8
花火 v1_Sketch2
100
AcDbSpline
210
0.0
220
0.0
230
1.0
 70
    15
 71
     5
 72
    31
 73
    25
 74
     0
 42
0.000000001
 43
0.0000000001
 40
0.0
 40
0.0
 40
0.0
 40
0.0
 40
0.0
 40
0.0
 40
0.05
 40
0.1
 40
0.15
 40
0.2
 40
0.25
 40
0.3
 40
0.35
 40
0.4
 40
0.45
 40
0.5
 40
0.55
 40
0.6
 40
0.65
 40
0.7000000000000001
 40
0.7500000000000001
 40
0.8000000000000001
 40
0.8500000000000001
 40
0.9000000000000001
 40
0.9500000000000003
 40
1.0
 40
1.0
 40
1.0
 40
1.0
 40
1.0
 40
1.0
 10
-10.36842480691654
 20
21.79725669635863
 30
0.0
 41
1.0
 10
-10.29117950660201
 20
21.82268405783767
 30
0.0
 41
1.0
 10
-10.18220275740516
 20
21.94348803537484
 30
0.0
 41
1.0
 10
-10.15881579858231
 20
22.33321259794383
 30
0.0
 41
1.0
 10
-10.40860464468583
 20
23.24459335230947
 30
0.0
 41
1.0
 10
-11.13942007229996
 20
24.90039670614474
 30
0.0
 41
1.0
 10
-12.20125376672117
 20
26.88870896867656
 30
0.0
 41
1.0
 10
-13.48176948761365
 20
29.00199616668361
 30
0.0
 41
1.0
 10
-14.85647787731096
 20
31.03332597211649
 30
0.0
 41
1.0
 10
-16.200742797562
 20
32.799385325006
 30
0.0
 41
1.0
 10
-17.39620493277653
 20
34.14613957115454
 30
0.0
 41
1.0
 10
-18.33754063887217
 20
34.95584856318016
 30
0.0
 41
1.0
 10
-18.9394564635052
 20
35.15463299309609
 30
0.0
 41
1.0
 10
-19.14402495802356
 20
34.72089080780121
 30
0.0
 41
1.0
 10
-18.92895967828225
 20
33.69538091250696
 30
0.0
 41
1.0
 10
-18.30651812763211
 20
32.17081088936025
 30
0.0
 41
1.0
 10
-17.3235024644586
 20
30.28233631692216
 30
0.0
 41
1.0
 10
-16.06065403261738
 20
28.19823590613771
 30
0.0
 41
1.0
 10
-14.63624406320248
 20
26.11350117112476
 30
0.0
 41
1.0
 10
-13.19637051683259
 20
24.23478788422276
 30
0.0
 41
1.0
 10
-11.8945671397053
 20
22.75819891394327
 30
0.0
 41
1.0
 10
-11.07868618100417
 20
22.03074259514108
 30
0.0
 41
1.0
 10
-10.64567455929235
 20
21.79092386650055
 30
0.0
 41
1.0
 10
-10.44567010723107
 20
21.77182933487958
 30
0.0
 41
1.0
 10
-10.36842480691654
 20
21.79725669635863
 30
0.0
 41
1.0
  0
SPLINE
  5
A0
330
70
100
AcDbEntity
  8
花火 v1_Sketch2
100
AcDbSpline
210
0.0
220
0.0
230
1.0
 70
    15
 71
     5
 72
    36
 73
    30
 74
     0
 42
0.000000001
 43
0.0000000001
 40
0.0
 40
0.0
 40
0.0
 40
0.0
 40
0.0
 40
0.0
 40
0.04
 40
0.08
 40
0.12
 40
0.16
 40
0.2
 40
0.24
 40
0.28
 40
0.32
 40
0.36
 40
0.4
 40
0.44
 40
0.4799999999999999
 40
0.52
 40
0.56
 40
0.6
 40
0.6400000000000001
 40
0.6800000000000001
 40
0.7200000000000001
 40
0.7600000000000002
 40
0.8000000000000001
 40
0.8400000000000002
 40
0.8800000000000002
 40
0.9200000000000002
 40
0.9600000000000003
 40
1.0
 40
1.0
 40
1.0
 40
1.0
 40
1.0
 40
1.0
 10
24.50718590725724
 20
6.951557541000852
 30
0.0
 41
1.0
 10
24.82845858571803
 20
6.942734242510939
 30
0.0
 41
1.0
 10
25.4522773429141
 20
6.932348761532849
 30
0.0
 41
1.0
 10
26.32570975581961
 20
6.939596354819098
 30
0.0
 41
1.0
 10
27.36690323683095
 20
6.987732541186046
 30
0.0
 41
1.0
 10
28.54054047334784
 20
7.058018183295962
 30
0.0
 41
1.0
 10
29.68453282521095
 20
7.069072542568068
 30
0.0
 41
1.0
 10
30.86681495109023
 20
6.955910142640969
 30
0.0
 41
1.0
 10
32.0658283549398
 20
6.679841534177427
 30
0.0
 41
1.0
 10
33.1351126806201
 20
6.244265612253938
 30
0.0
 41
1.0
 10
33.8774884469214
 20
5.683903783770079
 30
0.0
 41
1.0
 10
34.09855250942721
 20
5.057911157032925
 30
0.0
 41
1.0
 10
33.67789293998755
 20
4.442431642451502
 30
0.0
 41
1.0
 10
32.6001984828415
 20
3.921549574632912
 30
0.0
 41
1.0
 10
30.92807769205899
 20
3.574416012949966
 30
0.0
 41
1.0
 10
28.78941375053648
 20
3.463039565127318
 30
0.0
 41
1.0
 10
26.35978945585347
 20
3.62008354118993
 30
0.0
 41
1.0
 10
23.84809391766741
 20
4.035114395700834
 30
0.0
 41
1.0
 10
21.48058012965321
 20
4.644353163949693
 30
0.0
 41
1.0
 10
19.47775481522405
 20
5.352673920460672
 30
0.0
 41
1.0
 10
18.03198658032314
 20
6.052089884554236
 30
0.0
 41
1.0
 10
17.28391815574653
 20
6.641662755920979
 30
0.0
 41
1.0
 10
17.29993900326157
 20
7.046066096590731
 30
0.0
 41
1.0
 10
18.04511993580161
 20
7.236752171610248
 30
0.0
 41
1.0
 10
19.36562662497366
 20
7.247338197783175
 30
0.0
 41
1.0
 10
21.04338172945659
 20
7.146824065173912
 30
0.0
 41
1.0
 10
22.48266946171114
 20
7.043391003200792
 30
0.0
 41
1.0
 10
23.52464127214938
 20
6.985288552472319
 30
0.0
 41
1.0
 10
24.18591322879646
 20
6.960380839490763
 30
0.0
 41
1.0
 10
24.50718590725724
 20
6.951557541000852
 30
0.0
 41
1.0
  0
SPLINE
  5
A1
330
70
100
AcDbEntity
  8
花火 v1_Sketch2
100
AcDbSpline
210
0.0
220
0.0
230
1.0
 70
    13
 71
     5
 72
    36
 73
    30
 74
     0
 42
0.000000001
 43
0.0000000001
 40
0.0
 40
0.0
 40
0.0
 40
0.0
 40
0.0
 40
0.0
 40
0.04
 40
0.08
 40
0.12
 40
0.16
 40
0.2
 40
0.24
 40
0.28
 40
0.32
 40
0.36
 40
0.4
 40
0.44
 40
0.4799999999999999
 40
0.52
 40
0.56
 40
0.6
 40
0.6400000000000001
 40
0.6800000000000001
 40
0.7200000000000001
 40
0.7600000000000002
 40
0.8000000000000001
 40
0.8400000000000002
 40
0.8800000000000002
 40
0.9200000000000002
 40
0.9600000000000003
 40
1.0
 40
1.0
 40
1.0
 40
1.0
 40
1.0
 40
1.0
 10
-32.04785849410568
 20
-12.84270799947617
 30
0.0
 41
1.0
 10
-31.97629754141233
 20
-12.91580812543323
 30
0.0
 41
1.0
 10
-31.76645283377971
 20
-13.02095694846447
 30
0.0
 41
1.0
 10
-31.26161479528214
 20
-13.05634219105888
 30
0.0
 41
1.0
 10
-30.27353765685962
 20
-12.87800218207018
 30
0.0
 41
1.0
 10
-28.74405748872426
 20
-12.37642747506714
 30
0.0
 41
1.0
 10
-27.16039412656293
 20
-11.71206932168975
 30
0.0
 41
1.0
 10
-25.71991403354956
 20
-10.99142616385507
 30
0.0
 41
1.0
 10
-24.51168239792421
 20
-10.27779036822359
 30
0.0
 41
1.0
 10
-23.48868942784569
 20
-9.574773106245693
 30
0.0
 41
1.0
 10
-22.53900539087299
 20
-8.855561033452785
 30
0.0
 41
1.0
 10
-21.54086131983085
 20
-8.084416400210475
 30
0.0
 41
1.0
 10
-20.41720051765397
 20
-7.238805426634591
 30
0.0
 41
1.0
 10
-19.20678293244592
 20
-6.336914102405836
 30
0.0
 41
1.0
 10
-18.06549437477375
 20
-5.441093874376648
 30
0.0
 41
1.0
 10
-17.19716843636943
 20
-4.636920687624101
 30
0.0
 41
1.0
 10
-16.8050848309145
 20
-4.019307075676735
 30
0.0
 41
1.0
 10
-17.03341386815731
 20
-3.675669077142382
 30
0.0
 41
1.0
 10
-17.91696895697942
 20
-3.670776404321242
 30
0.0
 41
1.0
 10
-19.40346231939881
 20
-4.041555865866875
 30
0.0
 41
1.0
 10
-21.37071302645975
 20
-4.790315882770769
 30
0.0
 41
1.0
 10
-23.64499596552994
 20
-5.879680336665308
 30
0.0
 41
1.0
 10
-26.01722978503144
 20
-7.222218932684125
 30
0.0
 41
1.0
 10
-28.2629961805248
 20
-8.68891691624505
 30
0.0
 41
1.0
 10
-30.16527800758161
 20
-10.13184427524388
 30
0.0
 41
1.0
 10
-31.53646621587239
 20
-11.40239475131106
 30
0.0
 41
1.0
 10
-32.10015136821977
 20
-12.17750809017992
 30
0.0
 41
1.0
 10
-32.19581854993976
 20
-12.58235619272207
 30
0.0
 41
1.0
 10
-32.11941944679902
 20
-12.7696078735191
 30
0.0
 41
1.0
 10
-32.04785849410568
 20
-12.84270799947617
 30
0.0
 41
1.0
  0
CIRCLE
  5
A2
330
70
100
AcDbEntity
  8
花火 v1_Sketch2
100
AcDbCircle
 10
22.38637174220614
 20
-17.79127438459542
 30
0.0
 40
1.899838937209417
  0
POINT
  5
A4
330
70
100
AcDbEntity
  8
花火 v1_Sketch3
100
AcDbPoint
 10
0.0
 20
0.0
 30
0.0
  0
POINT
  5
A6
330
70
100
AcDbEntity
  8
花火 v1_Sketch4
100
AcDbPoint
 10
0.0
 20
0.0
 30
0.0
  0
SPLINE
  5
A7
330
70
100
AcDbEntity
  8
花火 v1_Sketch4
100
AcDbSpline
210
0.0
220
0.0
230
1.0
 70
    15
 71
     5
 72
    31
 73
    25
 74
     0
 42
0.000000001
 43
0.0000000001
 40
0.0
 40
0.0
 40
0.0
 40
0.0
 40
0.0
 40
0.0
 40
0.05
 40
0.1
 40
0.15
 40
0.2
 40
0.25
 40
0.3
 40
0.35
 40
0.4
 40
0.45
 40
0.5
 40
0.55
 40
0.6
 40
0.65
 40
0.7000000000000001
 40
0.7500000000000001
 40
0.8000000000000001
 40
0.8500000000000001
 40
0.9000000000000001
 40
0.9500000000000003
 40
1.0
 40
1.0
 40
1.0
 40
1.0
 40
1.0
 40
1.0
 10
-0.9425840733560519
 20
-33.57955761330924
 30
0.0
 41
1.0
 10
-1.059605517175501
 20
-33.56939731419599
 30
0.0
 41
1.0
 10
-1.288909268949245
 20
-33.6322639495718
 30
0.0
 41
1.0
 10
-1.613271087452811
 20
-33.97643699285536
 30
0.0
 41
1.0
 10
-1.989350980411335
 20
-34.90981495619229
 30
0.0
 41
1.0
 10
-2.33913024102337
 20
-36.70834306865297
 30
0.0
 41
1.0
 10
-2.554701344782077
 20
-38.91831921334557
 30
0.0
 41
1.0
 10
-2.630304207781437
 20
-41.29219248377942
 30
0.0
 41
1.0
 10
-2.564746744993777
 20
-43.58661798887664
 30
0.0
 41
1.0
 10
-2.356666350157368
 20
-45.59913223350748
 30
0.0
 41
1.0
 10
-2.007985186357098
 20
-47.17316945722576
 30
0.0
 41
1.0
 10
-1.529980216819535
 20
-48.19415999022112
 30
0.0
 41
1.0
 10
-0.9486875486262952
 20
-48.58975591288423
 30
0.0
 41
1.0
 10
-0.3111031515140721
 20
-48.32955498484672
 30
0.0
 41
1.0
 10
0.308876524349092
 20
-47.42660902008175
 30
0.0
 41
1.0
 10
0.82708371807899
 20
-45.93827779580016
 30
0.0
 41
1.0
 10
1.166311904836974
 20
-43.96941131835901
 30
0.0
 41
1.0
 10
1.271564672709085
 20
-41.67377589030133
 30
0.0
 41
1.0
 10
1.131211712920529
 20
-39.2632463922586
 30
0.0
 41
1.0
 10
0.7757042238950738
 20
-36.98958977407874
 30
0.0
 41
1.0
 10
0.2614712032854159
 20
-35.10783111488057
 30
0.0
 41
1.0
 10
-0.2197665647424917
 20
-34.09773780338527
 30
0.0
 41
1.0
 10
-0.5867806060325503
 20
-33.6932257442513
 30
0.0
 41
1.0
 10
-0.8255626295366027
 20
-33.58971791242249
 30
0.0
 41
1.0
 10
-0.9425840733560519
 20
-33.57955761330924
 30
0.0
 41
1.0
  0
CIRCLE
  5
A8
330
70
100
AcDbEntity
  8
花火 v1_Sketch4
100
AcDbCircle
 10
-0.9425840733560519
 20
5.066389394288748
 30
0.0
 40
4.718807839864945
  0
ENDSEC
  0
SECTION
  2
OBJECTS
  0
DICTIONARY
  5
C
330
0
100
AcDbDictionary
281
     1
  3
ACAD_COLOR
350
63
  3
ACAD_DETAILVIEWSTYLE
350
6A
  3
ACAD_GROUP
350
D
  3
ACAD_LAYOUT
350
62
  3
ACAD_MATERIAL
350
10
  3
ACAD_MLEADERSTYLE
350
66
  3
ACAD_MLINESTYLE
350
5F
  3
ACAD_PLOTSETTINGS
350
61
  3
ACAD_PLOTSTYLENAME
350
E
  3
ACAD_SCALELIST
350
42
  3
ACAD_SECTIONVIEWSTYLE
350
68
  3
ACAD_TABLESTYLE
350
64
  3
ACAD_VISUALSTYLE
350
29
  3
ACDB_RECOMPOSE_DATA
350
B1
  3
AcDbVariableDictionary
350
A9
  0
DICTIONARY
  5
63
102
{ACAD_REACTORS
330
C
102
}
330
C
100
AcDbDictionary
281
     1
  0
DICTIONARY
  5
6A
102
{ACAD_REACTORS
330
C
102
}
330
C
100
AcDbDictionary
281
     1
  3
Imperial24
350
6B
  0
DICTIONARY
  5
D
102
{ACAD_REACTORS
330
C
102
}
330
C
100
AcDbDictionary
281
     1
  0
DICTIONARY
  5
62
102
{ACAD_REACTORS
330
C
102
}
330
C
100
AcDbDictionary
281
     1
  3
Layout1
350
6F
  3
Layout2
350
77
  3
Model
350
73
  0
DICTIONARY
  5
10
102
{ACAD_REACTORS
330
C
102
}
330
C
100
AcDbDictionary
281
     1
  3
ByBlock
350
19
  3
ByLayer
350
11
  3
Global
350
21
  0
DICTIONARY
  5
66
102
{ACAD_REACTORS
330
C
102
}
330
C
100
AcDbDictionary
281
     1
  3
Standard
350
67
  0
DICTIONARY
  5
5F
102
{ACAD_REACTORS
330
C
102
}
330
C
100
AcDbDictionary
281
     1
  3
Standard
350
60
  0
DICTIONARY
  5
61
102
{ACAD_REACTORS
330
C
102
}
330
C
100
AcDbDictionary
281
     1
  0
ACDBDICTIONARYWDFLT
  5
E
102
{ACAD_REACTORS
330
C
102
}
330
C
100
AcDbDictionary
281
     1
  3
Normal
350
F
100
AcDbDictionaryWithDefault
340
F
  0
DICTIONARY
  5
42
102
{ACAD_REACTORS
330
C
102
}
330
C
100
AcDbDictionary
281
     1
  3
A0
350
43
  3
A1
350
44
  3
A2
350
45
  3
A3
350
46
  3
A4
350
47
  3
A5
350
48
  3
A6
350
49
  3
A7
350
4A
  3
A8
350
4B
  3
A9
350
4C
  3
B0
350
4D
  3
B1
350
4E
  3
B2
350
4F
  3
B3
350
50
  3
B4
350
51
  3
B5
350
52
  3
B6
350
53
  0
DICTIONARY
  5
68
102
{ACAD_REACTORS
330
C
102
}
330
C
100
AcDbDictionary
281
     1
  3
Imperial24
350
69
  0
DICTIONARY
  5
64
102
{ACAD_REACTORS
330
C
102
}
330
C
100
AcDbDictionary
281
     1
  3
Standard
350
65
  0
DICTIONARY
  5
29
102
{ACAD_REACTORS
330
C
102
}
330
C
100
AcDbDictionary
281
     1
  3
2dWireframe
350
2F
  3
Basic
350
2E
  3
Brighten
350
35
  3
ColorChange
350
39
  3
Conceptual
350
32
  3
Dim
350
34
  3
EdgeColorOff
350
41
  3
Facepattern
350
38
  3
Flat
350
2A
  3
FlatWithEdges
350
2B
  3
Gouraud
350
2C
  3
GouraudWithEdges
350
2D
  3
Hidden
350
31
  3
JitterOff
350
3F
  3
Linepattern
350
37
  3
OverhangOff
350
40
  3
Realistic
350
33
  3
Shaded
350
3E
  3
Shaded with edges
350
3D
  3
Shades of Gray
350
3A
  3
Sketchy
350
3B
  3
Thicken
350
36
  3
Wireframe
350
30
  3
X-Ray
350
3C
  0
XRECORD
  5
B1
102
{ACAD_REACTORS
330
C
102
}
330
C
100
AcDbXrecord
280
     1
 90
        1
330
65
  0
DICTIONARY
  5
A9
102
{ACAD_REACTORS
330
C
102
}
330
C
100
AcDbDictionary
281
     1
  3
CANNOSCALE
350
AE
  3
CMLEADERSTYLE
350
AB
  3
CTABLESTYLE
350
AA
  3
CVIEWDETAILSTYLE
350
AC
  3
CVIEWSECTIONSTYLE
350
AD
  0
ACDBDETAILVIEWSTYLE
  5
6B
102
{ACAD_XDICTIONARY
360
B4
102
}
102
{ACAD_REACTORS
330
6A
102
}
330
6A
100
AcDbModelDocViewStyle
 70
     0
  3
Imperial24
290
     0
100
AcDbDetailViewStyle
 70
     0
 71
     0
 90
        3
 71
     1
340
55
 62
   256
 40
0.24
340
0
 62
   256
 40
0.24
300

 40
0.36
280
     3
 71
     2
340
5D
 90
       25
 62
   256
 71
     3
340
55
 62
   256
 40
0.24
 90
        1
 40
0.75
 90
        1
300
%<\AcVar ViewType \f "%tc1">% %<\AcVar ViewDetailId>%\PSCALE %<\AcVar ViewScale \f "%sn">%
 71
     4
340
5D
 90
       25
 62
   256
340
5D
 90
       25
 62
   256
280
     0
  0
LAYOUT
  5
6F
102
{ACAD_REACTORS
330
62
102
}
330
62
100
AcDbPlotSettings
  1

  2

  4

  6

 40
0.0
 41
0.0
 42
0.0
 43
0.0
 44
0.0
 45
0.0
 46
0.0
 47
0.0
 48
0.0
 49
0.0
140
0.0
141
0.0
142
1.0
143
1.0
 70
   688
 72
     0
 73
     0
 74
     5
  7

 75
    16
147
1.0
 76
     0
 77
     2
 78
   300
148
0.0
149
0.0
100
AcDbLayout
  1
Layout1
 70
     1
 71
     1
 10
0.0
 20
0.0
 11
12.0
 21
9.0
 12
0.0
 22
0.0
 32
0.0
 14
0.0
 24
0.0
 34
0.0
 15
0.0
 25
0.0
 35
0.0
146
0.0
 13
0.0
 23
0.0
 33
0.0
 16
1.0
 26
0.0
 36
0.0
 17
0.0
 27
1.0
 37
0.0
 76
     0
330
6C
  0
LAYOUT
  5
77
102
{ACAD_REACTORS
330
62
102
}
330
62
100
AcDbPlotSettings
  1

  2

  4

  6

 40
0.0
 41
0.0
 42
0.0
 43
0.0
 44
0.0
 45
0.0
 46
0.0
 47
0.0
 48
0.0
 49
0.0
140
0.0
141
0.0
142
1.0
143
1.0
 70
   688
 72
     0
 73
     0
 74
     5
  7

 75
    16
147
1.0
 76
     0
 77
     2
 78
   300
148
0.0
149
0.0
100
AcDbLayout
  1
Layout2
 70
     1
 71
     2
 10
0.0
 20
0.0
 11
12.0
 21
9.0
 12
0.0
 22
0.0
 32
0.0
 14
0.0
 24
0.0
 34
0.0
 15
0.0
 25
0.0
 35
0.0
146
0.0
 13
0.0
 23
0.0
 33
0.0
 16
1.0
 26
0.0
 36
0.0
 17
0.0
 27
1.0
 37
0.0
 76
     0
330
74
  0
LAYOUT
  5
73
102
{ACAD_REACTORS
330
62
102
}
330
62
100
AcDbPlotSettings
  1

  2

  4

  6

 40
0.0
 41
0.0
 42
0.0
 43
0.0
 44
0.0
 45
0.0
 46
0.0
 47
0.0
 48
0.0
 49
0.0
140
0.0
141
0.0
142
1.0
143
1.0
 70
  1712
 72
     0
 73
     0
 74
     0
  7

 75
     0
147
1.0
 76
     0
 77
     2
 78
   300
148
0.0
149
0.0
100
AcDbLayout
  1
Model
 70
     1
 71
     0
 10
0.0
 20
0.0
 11
12.0
 21
9.0
 12
0.0
 22
0.0
 32
0.0
 14
0.0
 24
0.0
 34
0.0
 15
0.0
 25
0.0
 35
0.0
146
0.0
 13
0.0
 23
0.0
 33
0.0
 16
1.0
 26
0.0
 36
0.0
 17
0.0
 27
1.0
 37
0.0
 76
     0
330
70
  0
MATERIAL
  5
19
102
{ACAD_XDICTIONARY
360
1A
102
}
102
{ACAD_REACTORS
330
10
102
}
330
10
100
AcDbMaterial
  1
ByBlock
 72
     0
 43
0.0208333333333333
 43
0.0
 43
0.0
 43
0.0
 43
0.0
 43
0.0208333333333333
 43
0.0
 43
0.0
 43
0.0
 43
0.0
 43
1.0
 43
0.0
 43
0.0
 43
0.0
 43
0.0
 43
1.0
 77
     0
 47
0.0208333333333333
 47
0.0
 47
0.0
 47
0.0
 47
0.0
 47
0.0208333333333333
 47
0.0
 47
0.0
 47
0.0
 47
0.0
 47
1.0
 47
0.0
 47
0.0
 47
0.0
 47
0.0
 47
1.0
171
     0
 49
0.0208333333333333
 49
0.0
 49
0.0
 49
0.0
 49
0.0
 49
0.0208333333333333
 49
0.0
 49
0.0
 49
0.0
 49
0.0
 49
1.0
 49
0.0
 49
0.0
 49
0.0
 49
0.0
 49
1.0
175
     0
142
0.0208333333333333
142
0.0
142
0.0
142
0.0
142
0.0
142
0.0208333333333333
142
0.0
142
0.0
142
0.0
142
0.0
142
1.0
142
0.0
142
0.0
142
0.0
142
0.0
142
1.0
179
     0
144
0.0208333333333333
144
0.0
144
0.0
144
0.0
144
0.0
144
0.0208333333333333
144
0.0
144
0.0
144
0.0
144
0.0
144
1.0
144
0.0
144
0.0
144
0.0
144
0.0
144
1.0
147
0.0208333333333333
147
0.0
147
0.0
147
0.0
147
0.0
147
0.0208333333333333
147
0.0
147
0.0
147
0.0
147
0.0
147
1.0
147
0.0
147
0.0
147
0.0
147
0.0
147
1.0
  0
MATERIAL
  5
11
102
{ACAD_XDICTIONARY
360
12
102
}
102
{ACAD_REACTORS
330
10
102
}
330
10
100
AcDbMaterial
  1
ByLayer
 72
     0
 43
0.0208333333333333
 43
0.0
 43
0.0
 43
0.0
 43
0.0
 43
0.0208333333333333
 43
0.0
 43
0.0
 43
0.0
 43
0.0
 43
1.0
 43
0.0
 43
0.0
 43
0.0
 43
0.0
 43
1.0
 77
     0
 47
0.0208333333333333
 47
0.0
 47
0.0
 47
0.0
 47
0.0
 47
0.0208333333333333
 47
0.0
 47
0.0
 47
0.0
 47
0.0
 47
1.0
 47
0.0
 47
0.0
 47
0.0
 47
0.0
 47
1.0
171
     0
 49
0.0208333333333333
 49
0.0
 49
0.0
 49
0.0
 49
0.0
 49
0.0208333333333333
 49
0.0
 49
0.0
 49
0.0
 49
0.0
 49
1.0
 49
0.0
 49
0.0
 49
0.0
 49
0.0
 49
1.0
175
     0
142
0.0208333333333333
142
0.0
142
0.0
142
0.0
142
0.0
142
0.0208333333333333
142
0.0
142
0.0
142
0.0
142
0.0
142
1.0
142
0.0
142
0.0
142
0.0
142
0.0
142
1.0
179
     0
144
0.0208333333333333
144
0.0
144
0.0
144
0.0
144
0.0
144
0.0208333333333333
144
0.0
144
0.0
144
0.0
144
0.0
144
1.0
144
0.0
144
0.0
144
0.0
144
0.0
144
1.0
147
0.0208333333333333
147
0.0
147
0.0
147
0.0
147
0.0
147
0.0208333333333333
147
0.0
147
0.0
147
0.0
147
0.0
147
1.0
147
0.0
147
0.0
147
0.0
147
0.0
147
1.0
  0
MATERIAL
  5
21
102
{ACAD_XDICTIONARY
360
22
102
}
102
{ACAD_REACTORS
330
10
102
}
330
10
100
AcDbMaterial
  1
Global
 72
     0
 43
0.0208333333333333
 43
0.0
 43
0.0
 43
0.0
 43
0.0
 43
0.0208333333333333
 43
0.0
 43
0.0
 43
0.0
 43
0.0
 43
1.0
 43
0.0
 43
0.0
 43
0.0
 43
0.0
 43
1.0
 77
     0
 47
0.0208333333333333
 47
0.0
 47
0.0
 47
0.0
 47
0.0
 47
0.0208333333333333
 47
0.0
 47
0.0
 47
0.0
 47
0.0
 47
1.0
 47
0.0
 47
0.0
 47
0.0
 47
0.0
 47
1.0
171
     0
 49
0.0208333333333333
 49
0.0
 49
0.0
 49
0.0
 49
0.0
 49
0.0208333333333333
 49
0.0
 49
0.0
 49
0.0
 49
0.0
 49
1.0
 49
0.0
 49
0.0
 49
0.0
 49
0.0
 49
1.0
175
     0
142
0.0208333333333333
142
0.0
142
0.0
142
0.0
142
0.0
142
0.0208333333333333
142
0.0
142
0.0
142
0.0
142
0.0
142
1.0
142
0.0
142
0.0
142
0.0
142
0.0
142
1.0
179
     0
144
0.0208333333333333
144
0.0
144
0.0
144
0.0
144
0.0
144
0.0208333333333333
144
0.0
144
0.0
144
0.0
144
0.0
144
1.0
144
0.0
144
0.0
144
0.0
144
0.0
144
1.0
147
0.0208333333333333
147
0.0
147
0.0
147
0.0
147
0.0
147
0.0208333333333333
147
0.0
147
0.0
147
0.0
147
0.0
147
1.0
147
0.0
147
0.0
147
0.0
147
0.0
147
1.0
  0
MLEADERSTYLE
  5
67
102
{ACAD_REACTORS
330
66
102
}
330
66
100
AcDbMLeaderStyle
179
     2
170
     2
171
     1
172
     0
 90
        2
 40
0.0
 41
0.0
173
     1
 91
-1056964608
340
5B
 92
       -2
290
     1
 42
0.09
291
     1
 43
0.36
  3
Standard
 44
0.18
300

342
55
174
     1
178
     6
175
     1
176
     0
 93
-1056964608
 45
0.18
292
     0
297
     0
 46
0.18
 94
-1056964608
 47
1.0
 49
1.0
140
1.0
293
     1
141
0.0
294
     1
177
     0
142
1.0
295
     0
296
     0
143
0.125
271
     0
272
     9
273
     9
298
     1
  0
MLINESTYLE
  5
60
102
{ACAD_REACTORS
330
5F
102
}
330
5F
100
AcDbMlineStyle
  2
STANDARD
 70
     0
  3

 62
   256
 51
90.0
 52
90.0
 71
     2
 49
0.5
 62
   256
  6
BYLAYER
 49
-0.5
 62
   256
  6
BYLAYER
  0
ACDBPLACEHOLDER
  5
F
102
{ACAD_REACTORS
330
E
102
}
330
E
  0
SCALE
  5
43
102
{ACAD_REACTORS
330
42
102
}
330
42
100
AcDbScale
 70
     0
300
1:1
140
1.0
141
1.0
290
     1
  0
SCALE
  5
44
102
{ACAD_REACTORS
330
42
102
}
330
42
100
AcDbScale
 70
     0
300
1/128" = 1'-0"
140
0.0078125
141
12.0
290
     0
  0
SCALE
  5
45
102
{ACAD_REACTORS
330
42
102
}
330
42
100
AcDbScale
 70
     0
300
1/64" = 1'-0"
140
0.015625
141
12.0
290
     0
  0
SCALE
  5
46
102
{ACAD_REACTORS
330
42
102
}
330
42
100
AcDbScale
 70
     0
300
1/32" = 1'-0"
140
0.03125
141
12.0
290
     0
  0
SCALE
  5
47
102
{ACAD_REACTORS
330
42
102
}
330
42
100
AcDbScale
 70
     0
300
1/16" = 1'-0"
140
0.0625
141
12.0
290
     0
  0
SCALE
  5
48
102
{ACAD_REACTORS
330
42
102
}
330
42
100
AcDbScale
 70
     0
300
3/32" = 1'-0"
140
0.09375
141
12.0
290
     0
  0
SCALE
  5
49
102
{ACAD_REACTORS
330
42
102
}
330
42
100
AcDbScale
 70
     0
300
1/8" = 1'-0"
140
0.125
141
12.0
290
     0
  0
SCALE
  5
4A
102
{ACAD_REACTORS
330
42
102
}
330
42
100
AcDbScale
 70
     0
300
3/16" = 1'-0"
140
0.1875
141
12.0
290
     0
  0
SCALE
  5
4B
102
{ACAD_REACTORS
330
42
102
}
330
42
100
AcDbScale
 70
     0
300
1/4" = 1'-0"
140
0.25
141
12.0
290
     0
  0
SCALE
  5
4C
102
{ACAD_REACTORS
330
42
102
}
330
42
100
AcDbScale
 70
     0
300
3/8" = 1'-0"
140
0.375
141
12.0
290
     0
  0
SCALE
  5
4D
102
{ACAD_REACTORS
330
42
102
}
330
42
100
AcDbScale
 70
     0
300
1/2" = 1'-0"
140
0.5
141
12.0
290
     0
  0
SCALE
  5
4E
102
{ACAD_REACTORS
330
42
102
}
330
42
100
AcDbScale
 70
     0
300
3/4" = 1'-0"
140
0.75
141
12.0
290
     0
  0
SCALE
  5
4F
102
{ACAD_REACTORS
330
42
102
}
330
42
100
AcDbScale
 70
     0
300
1" = 1'-0"
140
1.0
141
12.0
290
     0
  0
SCALE
  5
50
102
{ACAD_REACTORS
330
42
102
}
330
42
100
AcDbScale
 70
     0
300
1-1/2" = 1'-0"
140
1.5
141
12.0
290
     0
  0
SCALE
  5
51
102
{ACAD_REACTORS
330
42
102
}
330
42
100
AcDbScale
 70
     0
300
3" = 1'-0"
140
3.0
141
12.0
290
     0
  0
SCALE
  5
52
102
{ACAD_REACTORS
330
42
102
}
330
42
100
AcDbScale
 70
     0
300
6" = 1'-0"
140
6.0
141
12.0
290
     0
  0
SCALE
  5
53
102
{ACAD_REACTORS
330
42
102
}
330
42
100
AcDbScale
 70
     0
300
1'-0" = 1'-0"
140
12.0
141
12.0
290
     0
  0
ACDBSECTIONVIEWSTYLE
  5
69
102
{ACAD_XDICTIONARY
360
B2
102
}
102
{ACAD_REACTORS
330
68
102
}
330
68
100
AcDbModelDocViewStyle
 70
     0
  3
Imperial24
290
     0
100
AcDbSectionViewStyle
 70
     0
 71
     0
 90
       78
 71
     1
340
55
 62
   256
 40
0.24
340
0
340
0
 62
   256
 40
0.24
300
I, O, Q, S, X, Z
 40
0.48
 90
        3
 40
0.18
 90
        1
 71
     2
340
5D
 90
       25
 62
   256
340
5D
 90
       50
 62
   256
 40
0.24
 40
0.0
 40
0.24
 71
     3
340
55
 62
   256
 40
0.24
 90
        1
 40
0.75
 90
        1
300
%<\AcVar ViewType \f "%tc1">% %<\AcVar ViewSectionStartId>%-%<\AcVar ViewSectionEndId>%\PSCALE %<\AcVar ViewScale \f "%sn">%
 71
     4
 62
   256
 62
   257
300
ANSI31
 40
1.0
 90
        0
290
     0
290
     0
 90
        6
 40
0.0
 40
1.570796326794896
 40
0.2617993877991494
 40
1.308996938995747
 40
-0.2617993877991494
 40
1.832595714594046
  0
TABLESTYLE
  5
65
102
{ACAD_XDICTIONARY
360
AF
102
}
102
{ACAD_REACTORS
330
64
102
}
330
64
100
AcDbTableStyle
280
     0
  3
Standard
 70
     0
 71
     0
 40
0.06
 41
0.06
280
     0
281
     0
  7
Standard
140
0.18
170
     2
 62
     0
 63
     7
283
     0
 90
      512
 91
        0
  1

274
    -2
284
     1
 64
     0
275
    -2
285
     1
 65
     0
276
    -2
286
     1
 66
     0
277
    -2
287
     1
 67
     0
278
    -2
288
     1
 68
     0
279
    -2
289
     1
 69
     0
  7
Standard
140
0.25
170
     5
 62
     0
 63
     7
283
     0
 90
      512
 91
        0
  1

274
    -2
284
     1
 64
     0
275
    -2
285
     1
 65
     0
276
    -2
286
     1
 66
     0
277
    -2
287
     1
 67
     0
278
    -2
288
     1
 68
     0
279
    -2
289
     1
 69
     0
  7
Standard
140
0.18
170
     5
 62
     0
 63
     7
283
     0
 90
      512
 91
        0
  1

274
    -2
284
     1
 64
     0
275
    -2
285
     1
 65
     0
276
    -2
286
     1
 66
     0
277
    -2
287
     1
 67
     0
278
    -2
288
     1
 68
     0
279
    -2
289
     1
 69
     0
  0
VISUALSTYLE
  5
2F
102
{ACAD_REACTORS
330
29
102
}
330
29
100
AcDbVisualStyle
  2
2dWireframe
 70
     4
177
     3
291
     0
 70
    58
 90
        0
176
     1
 90
        2
176
     1
 90
        0
176
     1
 90
        0
176
     1
 40
0.6
176
     1
 40
30.0
176
     1
 62
     7
420
 16777215
176
     1
 90
        1
176
     1
 90
        4
176
     1
 62
     7
176
     1
 62
   257
176
     1
 90
        1
176
     1
 90
        1
176
     1
 40
1.0
176
     1
 90
        0
176
     1
 62
   257
176
     1
 40
1.0
176
     1
 90
        1
176
     1
 90
        6
176
     1
 90
        2
176
     1
 62
     7
176
     1
 90
        5
176
     1
 90
        0
176
     1
 90
        0
176
     1
290
     0
176
     1
 90
        1
176
     1
 40
0.0
176
     1
 90
        0
176
     1
290
     1
176
     1
290
     1
176
     1
290
     0
176
     1
290
     0
176
     1
290
     0
176
     1
290
     0
176
     1
290
     0
176
     1
290
     0
176
     1
290
     0
176
     1
 90
       50
176
     1
 40
0.0
176
     1
 40
1.0
176
     1
 90
        0
176
     1
 62
    18
420
        0
176
     1
 90
       50
176
     1
 90
        3
176
     1
 62
     5
420
      255
176
     1
290
     0
176
     1
 90
       50
176
     1
 90
       50
176
     1
 90
       50
176
     1
290
     0
176
     1
 90
       50
176
     1
 62
   256
176
     0
 40
1.0
176
     0
 90
        2
176
     1
  1
strokes_ogs.tif
176
     1
290
     0
176
     1
 40
1.0
176
     1
 40
1.0
176
     1
1001
ACAD
1000
AcDbSavedByObjectVersion
1070
     0
  0
VISUALSTYLE
  5
2E
102
{ACAD_REACTORS
330
29
102
}
330
29
100
AcDbVisualStyle
  2
Basic
 70
     7
177
     3
291
     1
 70
    58
 90
        1
176
     1
 90
        0
176
     1
 90
        1
176
     1
 90
        0
176
     1
 40
0.6
176
     1
 40
30.0
176
     1
 62
     7
420
 16777215
176
     1
 90
        0
176
     1
 90
        4
176
     1
 62
     7
176
     1
 62
   257
176
     1
 90
        1
176
     1
 90
        1
176
     1
 40
1.0
176
     1
 90
        8
176
     1
 62
     7
176
     1
 40
1.0
176
     1
 90
        1
176
     1
 90
        6
176
     1
 90
        2
176
     1
 62
     7
176
     1
 90
        5
176
     1
 90
        0
176
     1
 90
        0
176
     1
290
     0
176
     1
 90
        1
176
     1
 40
0.0
176
     1
 90
        0
176
     1
290
     0
176
     1
290
     1
176
     1
290
     1
176
     1
290
     0
176
     1
290
     0
176
     1
290
     0
176
     1
290
     0
176
     1
290
     0
176
     1
290
     0
176
     1
 90
       50
176
     1
 40
0.0
176
     1
 40
1.0
176
     1
 90
        0
176
     1
 62
    18
420
        0
176
     1
 90
       50
176
     1
 90
        3
176
     1
 62
     5
420
      255
176
     1
290
     0
176
     1
 90
       50
176
     1
 90
       50
176
     1
 90
       50
176
     1
290
     0
176
     1
 90
       50
176
     1
 62
   256
176
     0
 40
1.0
176
     0
 90
        2
176
     1
  1
strokes_ogs.tif
176
     1
290
     0
176
     1
 40
1.0
176
     1
 40
1.0
176
     1
1001
ACAD
1000
AcDbSavedByObjectVersion
1070
     0
  0
VISUALSTYLE
  5
35
102
{ACAD_REACTORS
330
29
102
}
330
29
100
AcDbVisualStyle
  2
Brighten
 70
    12
177
     3
291
     1
 70
    58
 90
        2
176
     1
 90
        2
176
     1
 90
        0
176
     1
 90
        0
176
     1
 40
0.6
176
     1
 40
30.0
176
     1
 62
     7
420
 16777215
176
     1
 90
        1
176
     1
 90
        4
176
     1
 62
     7
176
     1
 62
   257
176
     1
 90
        1
176
     1
 90
        1
176
     1
 40
1.0
176
     1
 90
        8
176
     1
 62
     7
176
     1
 40
1.0
176
     1
 90
        1
176
     1
 90
        6
176
     1
 90
        2
176
     1
 62
     7
176
     1
 90
        5
176
     1
 90
        0
176
     1
 90
        0
176
     1
290
     0
176
     1
 90
        1
176
     1
 40
50.0
176
     1
 90
        0
176
     1
290
     0
176
     1
290
     1
176
     1
290
     1
176
     1
290
     0
176
     1
290
     0
176
     1
290
     0
176
     1
290
     0
176
     1
290
     0
176
     1
290
     0
176
     1
 90
       50
176
     1
 40
0.0
176
     1
 40
1.0
176
     1
 90
        0
176
     1
 62
    18
420
        0
176
     1
 90
       50
176
     1
 90
        3
176
     1
 62
     5
420
      255
176
     1
290
     0
176
     1
 90
       50
176
     1
 90
       50
176
     1
 90
       50
176
     1
290
     0
176
     1
 90
       50
176
     1
 62
   256
176
     0
 40
1.0
176
     0
 90
        2
176
     1
  1
strokes_ogs.tif
176
     1
290
     0
176
     1
 40
1.0
176
     1
 40
1.0
176
     1
1001
ACAD
1000
AcDbSavedByObjectVersion
1070
     0
  0
VISUALSTYLE
  5
39
102
{ACAD_REACTORS
330
29
102
}
330
29
100
AcDbVisualStyle
  2
ColorChange
 70
    16
177
     3
291
     1
 70
    58
 90
        2
176
     1
 90
        2
176
     1
 90
        3
176
     1
 90
        0
176
     1
 40
0.6
176
     1
 40
30.0
176
     1
 62
     8
420
  8421504
176
     1
 90
        1
176
     1
 90
        4
176
     1
 62
     7
176
     1
 62
   257
176
     1
 90
        1
176
     1
 90
        1
176
     1
 40
1.0
176
     1
 90
        8
176
     1
 62
     8
420
  8421504
176
     1
 40
1.0
176
     1
 90
        1
176
     1
 90
        6
176
     1
 90
        2
176
     1
 62
     7
176
     1
 90
        5
176
     1
 90
        0
176
     1
 90
        0
176
     1
290
     0
176
     1
 90
        1
176
     1
 40
0.0
176
     1
 90
        0
176
     1
290
     0
176
     1
290
     1
176
     1
290
     1
176
     1
290
     0
176
     1
290
     0
176
     1
290
     0
176
     1
290
     0
176
     1
290
     0
176
     1
290
     0
176
     1
 90
       50
176
     1
 40
0.0
176
     1
 40
1.0
176
     1
 90
        0
176
     1
 62
    18
420
        0
176
     1
 90
       50
176
     1
 90
        3
176
     1
 62
     5
420
      255
176
     1
290
     0
176
     1
 90
       50
176
     1
 90
       50
176
     1
 90
       50
176
     1
290
     0
176
     1
 90
       50
176
     1
 62
   256
176
     0
 40
1.0
176
     0
 90
        2
176
     1
  1
strokes_ogs.tif
176
     1
290
     0
176
     1
 40
1.0
176
     1
 40
1.0
176
     1
1001
ACAD
1000
AcDbSavedByObjectVersion
1070
     0
  0
VISUALSTYLE
  5
32
102
{ACAD_REACTORS
330
29
102
}
330
29
100
AcDbVisualStyle
  2
Conceptual
 70
     9
177
     3
291
     0
 70
    58
 90
        3
176
     1
 90
        2
176
     1
 90
        0
176
     1
 90
        0
176
     1
 40
0.6
176
     1
 40
30.0
176
     1
 62
     7
420
 16777215
176
     1
 90
        2
176
     1
 90
        2
176
     1
 62
     7
176
     1
 62
   257
176
     1
 90
        1
176
     1
 90
        1
176
     1
 40
179.0
176
     1
 90
        8
176
     1
 62
     7
176
     1
 40
1.0
176
     1
 90
        1
176
     1
 90
        6
176
     1
 90
        2
176
     1
 62
     7
176
     1
 90
        3
176
     1
 90
        0
176
     1
 90
        0
176
     1
290
     0
176
     1
 90
        1
176
     1
 40
0.0
176
     1
 90
        0
176
     1
290
     0
176
     1
290
     1
176
     1
290
     1
176
     1
290
     0
176
     1
290
     0
176
     1
290
     0
176
     1
290
     0
176
     1
290
     0
176
     1
290
     0
176
     1
 90
       50
176
     1
 40
0.0
176
     1
 40
1.0
176
     1
 90
        0
176
     1
 62
    18
420
        0
176
     1
 90
       50
176
     1
 90
        3
176
     1
 62
     5
420
      255
176
     1
290
     0
176
     1
 90
       50
176
     1
 90
       50
176
     1
 90
       50
176
     1
290
     0
176
     1
 90
       50
176
     1
 62
   256
176
     0
 40
1.0
176
     0
 90
        2
176
     1
  1
strokes_ogs.tif
176
     1
290
     0
176
     1
 40
1.0
176
     1
 40
1.0
176
     1
1001
ACAD
1000
AcDbSavedByObjectVersion
1070
     0
  0
VISUALSTYLE
  5
34
102
{ACAD_REACTORS
330
29
102
}
330
29
100
AcDbVisualStyle
  2
Dim
 70
    11
177
     3
291
     1
 70
    58
 90
        2
176
     1
 90
        2
176
     1
 90
        0
176
     1
 90
        0
176
     1
 40
0.6
176
     1
 40
30.0
176
     1
 62
     7
420
 16777215
176
     1
 90
        1
176
     1
 90
        4
176
     1
 62
     7
176
     1
 62
   257
176
     1
 90
        1
176
     1
 90
        1
176
     1
 40
1.0
176
     1
 90
        8
176
     1
 62
     7
176
     1
 40
1.0
176
     1
 90
        1
176
     1
 90
        6
176
     1
 90
        2
176
     1
 62
     7
176
     1
 90
        5
176
     1
 90
        0
176
     1
 90
        0
176
     1
290
     0
176
     1
 90
        1
176
     1
 40
-50.0
176
     1
 90
        0
176
     1
290
     0
176
     1
290
     1
176
     1
290
     1
176
     1
290
     0
176
     1
290
     0
176
     1
290
     0
176
     1
290
     0
176
     1
290
     0
176
     1
290
     0
176
     1
 90
       50
176
     1
 40
0.0
176
     1
 40
1.0
176
     1
 90
        0
176
     1
 62
    18
420
        0
176
     1
 90
       50
176
     1
 90
        3
176
     1
 62
     5
420
      255
176
     1
290
     0
176
     1
 90
       50
176
     1
 90
       50
176
     1
 90
       50
176
     1
290
     0
176
     1
 90
       50
176
     1
 62
   256
176
     0
 40
1.0
176
     0
 90
        2
176
     1
  1
strokes_ogs.tif
176
     1
290
     0
176
     1
 40
1.0
176
     1
 40
1.0
176
     1
1001
ACAD
1000
AcDbSavedByObjectVersion
1070
     0
  0
VISUALSTYLE
  5
41
102
{ACAD_REACTORS
330
29
102
}
330
29
100
AcDbVisualStyle
  2
EdgeColorOff
 70
    22
177
     3
291
     1
 70
    58
 90
        2
176
     0
 90
        2
176
     0
 90
        0
176
     0
 90
        0
176
     0
 40
0.6
176
     0
 40
30.0
176
     0
 62
     7
420
 16777215
176
     0
 90
        1
176
     0
 90
        4
176
     0
 62
     7
176
     0
 62
   257
176
     0
 90
        1
176
     0
 90
        1
176
     0
 40
1.0
176
     0
 90
        8
176
     2
 62
     7
176
     0
 40
1.0
176
     0
 90
        1
176
     0
 90
        6
176
     0
 90
        2
176
     0
 62
     7
176
     0
 90
        5
176
     0
 90
        0
176
     0
 90
        0
176
     0
290
     0
176
     0
 90
        1
176
     0
 40
0.0
176
     0
 90
        0
176
     0
290
     0
176
     0
290
     1
176
     0
290
     1
176
     0
290
     0
176
     0
290
     0
176
     0
290
     0
176
     0
290
     0
176
     0
290
     0
176
     0
290
     0
176
     0
 90
       50
176
     0
 40
0.0
176
     0
 40
1.0
176
     0
 90
        0
176
     0
 62
    18
420
        0
176
     0
 90
       50
176
     0
 90
        3
176
     0
 62
     5
420
      255
176
     0
290
     0
176
     0
 90
       50
176
     0
 90
       50
176
     0
 90
       50
176
     0
290
     0
176
     0
 90
       50
176
     0
 62
   256
176
     0
 40
1.0
176
     0
 90
        2
176
     0
  1
strokes_ogs.tif
176
     0
290
     0
176
     0
 40
1.0
176
     0
 40
1.0
176
     0
1001
ACAD
1000
AcDbSavedByObjectVersion
1070
     0
  0
VISUALSTYLE
  5
38
102
{ACAD_REACTORS
330
29
102
}
330
29
100
AcDbVisualStyle
  2
Facepattern
 70
    15
177
     3
291
     1
 70
    58
 90
        2
176
     1
 90
        2
176
     1
 90
        0
176
     1
 90
        0
176
     1
 40
0.6
176
     1
 40
30.0
176
     1
 62
     7
420
 16777215
176
     1
 90
        1
176
     1
 90
        4
176
     1
 62
     7
176
     1
 62
   257
176
     1
 90
        1
176
     1
 90
        1
176
     1
 40
1.0
176
     1
 90
        8
176
     1
 62
     7
176
     1
 40
1.0
176
     1
 90
        1
176
     1
 90
        6
176
     1
 90
        2
176
     1
 62
     7
176
     1
 90
        5
176
     1
 90
        0
176
     1
 90
        0
176
     1
290
     0
176
     1
 90
        1
176
     1
 40
0.0
176
     1
 90
        0
176
     1
290
     0
176
     1
290
     1
176
     1
290
     1
176
     1
290
     0
176
     1
290
     0
176
     1
290
     0
176
     1
290
     0
176
     1
290
     0
176
     1
290
     0
176
     1
 90
       50
176
     1
 40
0.0
176
     1
 40
1.0
176
     1
 90
        0
176
     1
 62
    18
420
        0
176
     1
 90
       50
176
     1
 90
        3
176
     1
 62
     5
420
      255
176
     1
290
     0
176
     1
 90
       50
176
     1
 90
       50
176
     1
 90
       50
176
     1
290
     0
176
     1
 90
       50
176
     1
 62
   256
176
     0
 40
1.0
176
     0
 90
        2
176
     1
  1
strokes_ogs.tif
176
     1
290
     0
176
     1
 40
1.0
176
     1
 40
1.0
176
     1
1001
ACAD
1000
AcDbSavedByObjectVersion
1070
     0
  0
VISUALSTYLE
  5
2A
102
{ACAD_REACTORS
330
29
102
}
330
29
100
AcDbVisualStyle
  2
Flat
 70
     0
177
     3
291
     1
 70
    58
 90
        2
176
     1
 90
        1
176
     1
 90
        1
176
     1
 90
        2
176
     1
 40
0.6
176
     1
 40
30.0
176
     1
 62
     7
420
 16777215
176
     1
 90
        0
176
     1
 90
        0
176
     1
 62
     7
176
     1
 62
   257
176
     1
 90
        1
176
     1
 90
        1
176
     1
 40
1.0
176
     1
 90
        8
176
     1
 62
     7
176
     1
 40
1.0
176
     1
 90
        1
176
     1
 90
        6
176
     1
 90
        2
176
     1
 62
     7
176
     1
 90
        5
176
     1
 90
        0
176
     1
 90
        0
176
     1
290
     0
176
     1
 90
       13
176
     1
 40
0.0
176
     1
 90
        0
176
     1
290
     0
176
     1
290
     1
176
     1
290
     1
176
     1
290
     0
176
     1
290
     0
176
     1
290
     0
176
     1
290
     0
176
     1
290
     0
176
     1
290
     0
176
     1
 90
       50
176
     1
 40
0.0
176
     1
 40
1.0
176
     1
 90
        0
176
     1
 62
    18
420
        0
176
     1
 90
       50
176
     1
 90
        3
176
     1
 62
     5
420
      255
176
     1
290
     0
176
     1
 90
       50
176
     1
 90
       50
176
     1
 90
       50
176
     1
290
     0
176
     1
 90
       50
176
     1
 62
   256
176
     0
 40
1.0
176
     0
 90
        2
176
     1
  1
strokes_ogs.tif
176
     1
290
     0
176
     1
 40
1.0
176
     1
 40
1.0
176
     1
1001
ACAD
1000
AcDbSavedByObjectVersion
1070
     0
  0
VISUALSTYLE
  5
2B
102
{ACAD_REACTORS
330
29
102
}
330
29
100
AcDbVisualStyle
  2
FlatWithEdges
 70
     1
177
     3
291
     1
 70
    58
 90
        2
176
     1
 90
        1
176
     1
 90
        1
176
     1
 90
        2
176
     1
 40
0.6
176
     1
 40
30.0
176
     1
 62
     7
420
 16777215
176
     1
 90
        1
176
     1
 90
        0
176
     1
 62
     7
176
     1
 62
   257
176
     1
 90
        1
176
     1
 90
        1
176
     1
 40
1.0
176
     1
 90
        0
176
     1
 62
   257
176
     1
 40
1.0
176
     1
 90
        1
176
     1
 90
        6
176
     1
 90
        2
176
     1
 62
     7
176
     1
 90
        5
176
     1
 90
        0
176
     1
 90
        0
176
     1
290
     0
176
     1
 90
       13
176
     1
 40
0.0
176
     1
 90
        0
176
     1
290
     0
176
     1
290
     1
176
     1
290
     1
176
     1
290
     0
176
     1
290
     0
176
     1
290
     0
176
     1
290
     0
176
     1
290
     0
176
     1
290
     0
176
     1
 90
       50
176
     1
 40
0.0
176
     1
 40
1.0
176
     1
 90
        0
176
     1
 62
    18
420
        0
176
     1
 90
       50
176
     1
 90
        3
176
     1
 62
     5
420
      255
176
     1
290
     0
176
     1
 90
       50
176
     1
 90
       50
176
     1
 90
       50
176
     1
290
     0
176
     1
 90
       50
176
     1
 62
   256
176
     0
 40
1.0
176
     0
 90
        2
176
     1
  1
strokes_ogs.tif
176
     1
290
     0
176
     1
 40
1.0
176
     1
 40
1.0
176
     1
1001
ACAD
1000
AcDbSavedByObjectVersion
1070
     0
  0
VISUALSTYLE
  5
2C
102
{ACAD_REACTORS
330
29
102
}
330
29
100
AcDbVisualStyle
  2
Gouraud
 70
     2
177
     3
291
     1
 70
    58
 90
        2
176
     1
 90
        2
176
     1
 90
        1
176
     1
 90
        2
176
     1
 40
0.6
176
     1
 40
30.0
176
     1
 62
     7
420
 16777215
176
     1
 90
        0
176
     1
 90
        0
176
     1
 62
     7
176
     1
 62
   257
176
     1
 90
        1
176
     1
 90
        1
176
     1
 40
1.0
176
     1
 90
        0
176
     1
 62
     7
176
     1
 40
1.0
176
     1
 90
        1
176
     1
 90
        6
176
     1
 90
        2
176
     1
 62
     7
176
     1
 90
        5
176
     1
 90
        0
176
     1
 90
        0
176
     1
290
     0
176
     1
 90
       13
176
     1
 40
0.0
176
     1
 90
        0
176
     1
290
     0
176
     1
290
     1
176
     1
290
     1
176
     1
290
     0
176
     1
290
     0
176
     1
290
     0
176
     1
290
     0
176
     1
290
     0
176
     1
290
     0
176
     1
 90
       50
176
     1
 40
0.0
176
     1
 40
1.0
176
     1
 90
        0
176
     1
 62
    18
420
        0
176
     1
 90
       50
176
     1
 90
        3
176
     1
 62
     5
420
      255
176
     1
290
     0
176
     1
 90
       50
176
     1
 90
       50
176
     1
 90
       50
176
     1
290
     0
176
     1
 90
       50
176
     1
 62
   256
176
     0
 40
1.0
176
     0
 90
        2
176
     1
  1
strokes_ogs.tif
176
     1
290
     0
176
     1
 40
1.0
176
     1
 40
1.0
176
     1
1001
ACAD
1000
AcDbSavedByObjectVersion
1070
     0
  0
VISUALSTYLE
  5
2D
102
{ACAD_REACTORS
330
29
102
}
330
29
100
AcDbVisualStyle
  2
GouraudWithEdges
 70
     3
177
     3
291
     1
 70
    58
 90
        2
176
     1
 90
        2
176
     1
 90
        1
176
     1
 90
        2
176
     1
 40
0.6
176
     1
 40
30.0
176
     1
 62
     7
420
 16777215
176
     1
 90
        1
176
     1
 90
        0
176
     1
 62
     7
176
     1
 62
   257
176
     1
 90
        1
176
     1
 90
        1
176
     1
 40
1.0
176
     1
 90
        0
176
     1
 62
   257
176
     1
 40
1.0
176
     1
 90
        1
176
     1
 90
        6
176
     1
 90
        2
176
     1
 62
     7
176
     1
 90
        5
176
     1
 90
        0
176
     1
 90
        0
176
     1
290
     0
176
     1
 90
       13
176
     1
 40
0.0
176
     1
 90
        0
176
     1
290
     0
176
     1
290
     1
176
     1
290
     1
176
     1
290
     0
176
     1
290
     0
176
     1
290
     0
176
     1
290
     0
176
     1
290
     0
176
     1
290
     0
176
     1
 90
       50
176
     1
 40
0.0
176
     1
 40
1.0
176
     1
 90
        0
176
     1
 62
    18
420
        0
176
     1
 90
       50
176
     1
 90
        3
176
     1
 62
     5
420
      255
176
     1
290
     0
176
     1
 90
       50
176
     1
 90
       50
176
     1
 90
       50
176
     1
290
     0
176
     1
 90
       50
176
     1
 62
   256
176
     0
 40
1.0
176
     0
 90
        2
176
     1
  1
strokes_ogs.tif
176
     1
290
     0
176
     1
 40
1.0
176
     1
 40
1.0
176
     1
1001
ACAD
1000
AcDbSavedByObjectVersion
1070
     0
  0
VISUALSTYLE
  5
31
102
{ACAD_REACTORS
330
29
102
}
330
29
100
AcDbVisualStyle
  2
Hidden
 70
     6
177
     3
291
     0
 70
    58
 90
        1
176
     1
 90
        2
176
     1
 90
        2
176
     1
 90
        0
176
     1
 40
0.6
176
     1
 40
30.0
176
     1
 62
     7
420
 16777215
176
     1
 90
        2
176
     1
 90
        2
176
     1
 62
     7
176
     1
 62
   257
176
     1
 90
        2
176
     1
 90
        1
176
     1
 40
40.0
176
     1
 90
        0
176
     1
 62
   257
176
     1
 40
1.0
176
     1
 90
        1
176
     1
 90
        6
176
     1
 90
        2
176
     1
 62
     7
176
     1
 90
        3
176
     1
 90
        0
176
     1
 90
        0
176
     1
290
     0
176
     1
 90
        1
176
     1
 40
0.0
176
     1
 90
        0
176
     1
290
     0
176
     1
290
     1
176
     1
290
     1
176
     1
290
     0
176
     1
290
     0
176
     1
290
     0
176
     1
290
     0
176
     1
290
     0
176
     1
290
     0
176
     1
 90
       50
176
     1
 40
0.0
176
     1
 40
1.0
176
     1
 90
        0
176
     1
 62
    18
420
        0
176
     1
 90
       50
176
     1
 90
        3
176
     1
 62
     5
420
      255
176
     1
290
     0
176
     1
 90
       50
176
     1
 90
       50
176
     1
 90
       50
176
     1
290
     0
176
     1
 90
       50
176
     1
 62
   256
176
     0
 40
1.0
176
     0
 90
        2
176
     1
  1
strokes_ogs.tif
176
     1
290
     0
176
     1
 40
1.0
176
     1
 40
1.0
176
     1
1001
ACAD
1000
AcDbSavedByObjectVersion
1070
     0
  0
VISUALSTYLE
  5
3F
102
{ACAD_REACTORS
330
29
102
}
330
29
100
AcDbVisualStyle
  2
JitterOff
 70
    20
177
     3
291
     1
 70
    58
 90
        2
176
     0
 90
        2
176
     0
 90
        0
176
     0
 90
        0
176
     0
 40
0.6
176
     0
 40
30.0
176
     0
 62
     7
420
 16777215
176
     0
 90
        1
176
     0
 90
        4
176
     0
 62
     7
176
     0
 62
   257
176
     0
 90
        1
176
     0
 90
        1
176
     0
 40
1.0
176
     0
 90
       10
176
     2
 62
     7
176
     0
 40
1.0
176
     0
 90
        1
176
     0
 90
        6
176
     0
 90
        2
176
     0
 62
     7
176
     0
 90
        5
176
     0
 90
        0
176
     0
 90
        0
176
     0
290
     0
176
     0
 90
        1
176
     0
 40
0.0
176
     0
 90
        0
176
     0
290
     0
176
     0
290
     1
176
     0
290
     1
176
     0
290
     0
176
     0
290
     0
176
     0
290
     0
176
     0
290
     0
176
     0
290
     0
176
     0
290
     0
176
     0
 90
       50
176
     0
 40
0.0
176
     0
 40
1.0
176
     0
 90
        0
176
     0
 62
    18
420
        0
176
     0
 90
       50
176
     0
 90
        3
176
     0
 62
     5
420
      255
176
     0
290
     0
176
     0
 90
       50
176
     0
 90
       50
176
     0
 90
       50
176
     0
290
     0
176
     0
 90
       50
176
     0
 62
   256
176
     0
 40
1.0
176
     0
 90
        2
176
     0
  1
strokes_ogs.tif
176
     0
290
     0
176
     0
 40
1.0
176
     0
 40
1.0
176
     0
1001
ACAD
1000
AcDbSavedByObjectVersion
1070
     0
  0
VISUALSTYLE
  5
37
102
{ACAD_REACTORS
330
29
102
}
330
29
100
AcDbVisualStyle
  2
Linepattern
 70
    14
177
     3
291
     1
 70
    58
 90
        2
176
     1
 90
        2
176
     1
 90
        0
176
     1
 90
        0
176
     1
 40
0.6
176
     1
 40
30.0
176
     1
 62
     7
420
 16777215
176
     1
 90
        1
176
     1
 90
        4
176
     1
 62
     7
176
     1
 62
   257
176
     1
 90
        7
176
     1
 90
        7
176
     1
 40
1.0
176
     1
 90
        8
176
     1
 62
     7
176
     1
 40
1.0
176
     1
 90
        1
176
     1
 90
        6
176
     1
 90
        2
176
     1
 62
     7
176
     1
 90
        5
176
     1
 90
        0
176
     1
 90
        0
176
     1
290
     0
176
     1
 90
        1
176
     1
 40
0.0
176
     1
 90
        0
176
     1
290
     0
176
     1
290
     1
176
     1
290
     1
176
     1
290
     0
176
     1
290
     0
176
     1
290
     0
176
     1
290
     0
176
     1
290
     0
176
     1
290
     0
176
     1
 90
       50
176
     1
 40
0.0
176
     1
 40
1.0
176
     1
 90
        0
176
     1
 62
    18
420
        0
176
     1
 90
       50
176
     1
 90
        3
176
     1
 62
     5
420
      255
176
     1
290
     0
176
     1
 90
       50
176
     1
 90
       50
176
     1
 90
       50
176
     1
290
     0
176
     1
 90
       50
176
     1
 62
   256
176
     0
 40
1.0
176
     0
 90
        2
176
     1
  1
strokes_ogs.tif
176
     1
290
     0
176
     1
 40
1.0
176
     1
 40
1.0
176
     1
1001
ACAD
1000
AcDbSavedByObjectVersion
1070
     0
  0
VISUALSTYLE
  5
40
102
{ACAD_REACTORS
330
29
102
}
330
29
100
AcDbVisualStyle
  2
OverhangOff
 70
    21
177
     3
291
     1
 70
    58
 90
        2
176
     0
 90
        2
176
     0
 90
        0
176
     0
 90
        0
176
     0
 40
0.6
176
     0
 40
30.0
176
     0
 62
     7
420
 16777215
176
     0
 90
        1
176
     0
 90
        4
176
     0
 62
     7
176
     0
 62
   257
176
     0
 90
        1
176
     0
 90
        1
176
     0
 40
1.0
176
     0
 90
        9
176
     2
 62
     7
176
     0
 40
1.0
176
     0
 90
        1
176
     0
 90
        6
176
     0
 90
        2
176
     0
 62
     7
176
     0
 90
        5
176
     0
 90
        0
176
     0
 90
        0
176
     0
290
     0
176
     0
 90
        1
176
     0
 40
0.0
176
     0
 90
        0
176
     0
290
     0
176
     0
290
     1
176
     0
290
     1
176
     0
290
     0
176
     0
290
     0
176
     0
290
     0
176
     0
290
     0
176
     0
290
     0
176
     0
290
     0
176
     0
 90
       50
176
     0
 40
0.0
176
     0
 40
1.0
176
     0
 90
        0
176
     0
 62
    18
420
        0
176
     0
 90
       50
176
     0
 90
        3
176
     0
 62
     5
420
      255
176
     0
290
     0
176
     0
 90
       50
176
     0
 90
       50
176
     0
 90
       50
176
     0
290
     0
176
     0
 90
       50
176
     0
 62
   256
176
     0
 40
1.0
176
     0
 90
        2
176
     0
  1
strokes_ogs.tif
176
     0
290
     0
176
     0
 40
1.0
176
     0
 40
1.0
176
     0
1001
ACAD
1000
AcDbSavedByObjectVersion
1070
     0
  0
VISUALSTYLE
  5
33
102
{ACAD_REACTORS
330
29
102
}
330
29
100
AcDbVisualStyle
  2
Realistic
 70
     8
177
     3
291
     0
 70
    58
 90
        2
176
     1
 90
        3
176
     1
 90
        0
176
     1
 90
        2
176
     1
 40
0.6
176
     1
 40
30.0
176
     1
 62
     7
420
 16777215
176
     1
 90
        0
176
     1
 90
        0
176
     1
 62
     7
176
     1
 62
   257
176
     1
 90
        1
176
     1
 90
        1
176
     1
 40
1.0
176
     1
 90
        8
176
     1
 62
   257
176
     1
 40
1.0
176
     1
 90
        1
176
     1
 90
        6
176
     1
 90
        2
176
     1
 62
     7
176
     1
 90
        3
176
     1
 90
        0
176
     1
 90
        0
176
     1
290
     0
176
     1
 90
       13
176
     1
 40
0.0
176
     1
 90
        0
176
     1
290
     0
176
     1
290
     1
176
     1
290
     1
176
     1
290
     0
176
     1
290
     0
176
     1
290
     0
176
     1
290
     0
176
     1
290
     0
176
     1
290
     0
176
     1
 90
       50
176
     1
 40
0.0
176
     1
 40
1.0
176
     1
 90
        0
176
     1
 62
    18
420
        0
176
     1
 90
       50
176
     1
 90
        3
176
     1
 62
     5
420
      255
176
     1
290
     0
176
     1
 90
       50
176
     1
 90
       50
176
     1
 90
       50
176
     1
290
     0
176
     1
 90
       50
176
     1
 62
   256
176
     0
 40
1.0
176
     0
 90
        2
176
     1
  1
strokes_ogs.tif
176
     1
290
     0
176
     1
 40
1.0
176
     1
 40
1.0
176
     1
1001
ACAD
1000
AcDbSavedByObjectVersion
1070
     0
  0
VISUALSTYLE
  5
3E
102
{ACAD_REACTORS
330
29
102
}
330
29
100
AcDbVisualStyle
  2
Shaded
 70
    27
177
     3
291
     0
 70
    58
 90
        2
176
     1
 90
        2
176
     1
 90
        1
176
     1
 90
        2
176
     1
 40
0.6
176
     1
 40
30.0
176
     1
 62
     7
420
 16777215
176
     1
 90
        0
176
     1
 90
        4
176
     1
 62
     7
176
     1
 62
   257
176
     1
 90
        1
176
     1
 90
        1
176
     1
 40
1.0
176
     1
 90
        8
176
     1
 62
   257
176
     1
 40
1.0
176
     1
 90
        1
176
     1
 90
        6
176
     1
 90
        2
176
     1
 62
     8
420
  7895160
176
     1
 90
        3
176
     1
 90
        0
176
     1
 90
        0
176
     1
290
     0
176
     1
 90
        5
176
     1
 40
0.0
176
     1
 90
        0
176
     1
290
     0
176
     1
290
     1
176
     1
290
     1
176
     1
290
     0
176
     1
290
     0
176
     1
290
     0
176
     1
290
     0
176
     1
290
     0
176
     1
290
     0
176
     1
 90
       50
176
     1
 40
0.0
176
     1
 40
1.0
176
     1
 90
        0
176
     1
 62
    18
420
        0
176
     1
 90
       50
176
     1
 90
        3
176
     1
 62
     5
420
      255
176
     1
290
     0
176
     1
 90
       50
176
     1
 90
       50
176
     1
 90
       50
176
     1
290
     0
176
     1
 90
       50
176
     1
 62
   256
176
     0
 40
1.0
176
     0
 90
        2
176
     1
  1
strokes_ogs.tif
176
     1
290
     0
176
     1
 40
1.0
176
     1
 40
1.0
176
     1
1001
ACAD
1000
AcDbSavedByObjectVersion
1070
     0
  0
VISUALSTYLE
  5
3D
102
{ACAD_REACTORS
330
29
102
}
330
29
100
AcDbVisualStyle
  2
Shaded with edges
 70
    26
177
     3
291
     0
 70
    58
 90
        2
176
     1
 90
        2
176
     1
 90
        1
176
     1
 90
        2
176
     1
 40
0.6
176
     1
 40
30.0
176
     1
 62
     7
420
 16777215
176
     1
 90
        1
176
     1
 90
        2
176
     1
 62
     7
176
     1
 62
   257
176
     1
 90
        2
176
     1
 90
        1
176
     1
 40
1.0
176
     1
 90
        8
176
     1
 62
   257
176
     1
 40
1.0
176
     1
 90
        1
176
     1
 90
        6
176
     1
 90
        2
176
     1
 62
     7
176
     1
 90
        3
176
     1
 90
        0
176
     1
 90
        0
176
     1
290
     0
176
     1
 90
        5
176
     1
 40
0.0
176
     1
 90
        0
176
     1
290
     0
176
     1
290
     1
176
     1
290
     1
176
     1
290
     0
176
     1
290
     0
176
     1
290
     0
176
     1
290
     0
176
     1
290
     0
176
     1
290
     0
176
     1
 90
       50
176
     1
 40
0.0
176
     1
 40
1.0
176
     1
 90
        0
176
     1
 62
    18
420
        0
176
     1
 90
       50
176
     1
 90
        3
176
     1
 62
     5
420
      255
176
     1
290
     0
176
     1
 90
       50
176
     1
 90
       50
176
     1
 90
       50
176
     1
290
     0
176
     1
 90
       50
176
     1
 62
   256
176
     0
 40
1.0
176
     0
 90
        2
176
     1
  1
strokes_ogs.tif
176
     1
290
     0
176
     1
 40
1.0
176
     1
 40
1.0
176
     1
1001
ACAD
1000
AcDbSavedByObjectVersion
1070
     0
  0
VISUALSTYLE
  5
3A
102
{ACAD_REACTORS
330
29
102
}
330
29
100
AcDbVisualStyle
  2
Shades of Gray
 70
    23
177
     3
291
     0
 70
    58
 90
        2
176
     1
 90
        2
176
     1
 90
        3
176
     1
 90
        0
176
     1
 40
0.6
176
     1
 40
30.0
176
     1
 62
     7
420
 16777215
176
     1
 90
        2
176
     1
 90
        2
176
     1
 62
     7
176
     1
 62
     7
176
     1
 90
        1
176
     1
 90
        1
176
     1
 40
40.0
176
     1
 90
        8
176
     1
 62
     7
176
     1
 40
1.0
176
     1
 90
        1
176
     1
 90
        6
176
     1
 90
        2
176
     1
 62
     7
176
     1
 90
        3
176
     1
 90
        0
176
     1
 90
        0
176
     1
290
     0
176
     1
 90
        1
176
     1
 40
0.0
176
     1
 90
        0
176
     1
290
     0
176
     1
290
     1
176
     1
290
     1
176
     1
290
     0
176
     1
290
     0
176
     1
290
     0
176
     1
290
     0
176
     1
290
     0
176
     1
290
     0
176
     1
 90
       50
176
     1
 40
0.0
176
     1
 40
1.0
176
     1
 90
        0
176
     1
 62
    18
420
        0
176
     1
 90
       50
176
     1
 90
        3
176
     1
 62
     5
420
      255
176
     1
290
     0
176
     1
 90
       50
176
     1
 90
       50
176
     1
 90
       50
176
     1
290
     0
176
     1
 90
       50
176
     1
 62
   256
176
     0
 40
1.0
176
     0
 90
        2
176
     1
  1
strokes_ogs.tif
176
     1
290
     0
176
     1
 40
1.0
176
     1
 40
1.0
176
     1
1001
ACAD
1000
AcDbSavedByObjectVersion
1070
     0
  0
VISUALSTYLE
  5
3B
102
{ACAD_REACTORS
330
29
102
}
330
29
100
AcDbVisualStyle
  2
Sketchy
 70
    24
177
     3
291
     0
 70
    58
 90
        1
176
     1
 90
        2
176
     1
 90
        2
176
     1
 90
        0
176
     1
 40
0.6
176
     1
 40
30.0
176
     1
 62
     7
420
 16777215
176
     1
 90
        2
176
     1
 90
        2
176
     1
 62
     7
176
     1
 62
     7
176
     1
 90
        1
176
     1
 90
        1
176
     1
 40
40.0
176
     1
 90
       11
176
     1
 62
     7
176
     1
 40
1.0
176
     1
 90
        1
176
     1
 90
        6
176
     1
 90
        2
176
     1
 62
     7
176
     1
 90
        6
176
     1
 90
        0
176
     1
 90
        0
176
     1
290
     0
176
     1
 90
        1
176
     1
 40
0.0
176
     1
 90
        0
176
     1
290
     0
176
     1
290
     1
176
     1
290
     1
176
     1
290
     0
176
     1
290
     0
176
     1
290
     0
176
     1
290
     0
176
     1
290
     0
176
     1
290
     0
176
     1
 90
       50
176
     1
 40
0.0
176
     1
 40
1.0
176
     1
 90
        0
176
     1
 62
    18
420
        0
176
     1
 90
       50
176
     1
 90
        3
176
     1
 62
     5
420
      255
176
     1
290
     0
176
     1
 90
       50
176
     1
 90
       50
176
     1
 90
       50
176
     1
290
     0
176
     1
 90
       50
176
     1
 62
   256
176
     0
 40
1.0
176
     0
 90
        2
176
     1
  1
strokes_ogs.tif
176
     1
290
     0
176
     1
 40
1.0
176
     1
 40
1.0
176
     1
1001
ACAD
1000
AcDbSavedByObjectVersion
1070
     0
  0
VISUALSTYLE
  5
36
102
{ACAD_REACTORS
330
29
102
}
330
29
100
AcDbVisualStyle
  2
Thicken
 70
    13
177
     3
291
     1
 70
    58
 90
        2
176
     1
 90
        2
176
     1
 90
        0
176
     1
 90
        0
176
     1
 40
0.6
176
     1
 40
30.0
176
     1
 62
     7
420
 16777215
176
     1
 90
        1
176
     1
 90
        4
176
     1
 62
     7
176
     1
 62
   257
176
     1
 90
        1
176
     1
 90
        1
176
     1
 40
1.0
176
     1
 90
       12
176
     1
 62
     7
176
     1
 40
1.0
176
     1
 90
        1
176
     1
 90
        6
176
     1
 90
        2
176
     1
 62
     7
176
     1
 90
        5
176
     1
 90
        0
176
     1
 90
        0
176
     1
290
     0
176
     1
 90
        1
176
     1
 40
0.0
176
     1
 90
        0
176
     1
290
     0
176
     1
290
     1
176
     1
290
     1
176
     1
290
     0
176
     1
290
     0
176
     1
290
     0
176
     1
290
     0
176
     1
290
     0
176
     1
290
     0
176
     1
 90
       50
176
     1
 40
0.0
176
     1
 40
1.0
176
     1
 90
        0
176
     1
 62
    18
420
        0
176
     1
 90
       50
176
     1
 90
        3
176
     1
 62
     5
420
      255
176
     1
290
     0
176
     1
 90
       50
176
     1
 90
       50
176
     1
 90
       50
176
     1
290
     0
176
     1
 90
       50
176
     1
 62
   256
176
     0
 40
1.0
176
     0
 90
        2
176
     1
  1
strokes_ogs.tif
176
     1
290
     0
176
     1
 40
1.0
176
     1
 40
1.0
176
     1
1001
ACAD
1000
AcDbSavedByObjectVersion
1070
     0
  0
VISUALSTYLE
  5
30
102
{ACAD_REACTORS
330
29
102
}
330
29
100
AcDbVisualStyle
  2
Wireframe
 70
     5
177
     3
291
     0
 70
    58
 90
        0
176
     1
 90
        2
176
     1
 90
        0
176
     1
 90
        0
176
     1
 40
0.6
176
     1
 40
30.0
176
     1
 62
     7
420
 16777215
176
     1
 90
        1
176
     1
 90
        4
176
     1
 62
     7
176
     1
 62
   257
176
     1
 90
        1
176
     1
 90
        1
176
     1
 40
1.0
176
     1
 90
        0
176
     1
 62
   257
176
     1
 40
1.0
176
     1
 90
        1
176
     1
 90
        6
176
     1
 90
        2
176
     1
 62
     7
176
     1
 90
        3
176
     1
 90
        0
176
     1
 90
        0
176
     1
290
     0
176
     1
 90
        1
176
     1
 40
0.0
176
     1
 90
        0
176
     1
290
     0
176
     1
290
     1
176
     1
290
     1
176
     1
290
     0
176
     1
290
     0
176
     1
290
     0
176
     1
290
     0
176
     1
290
     0
176
     1
290
     0
176
     1
 90
       50
176
     1
 40
0.0
176
     1
 40
1.0
176
     1
 90
        0
176
     1
 62
    18
420
        0
176
     1
 90
       50
176
     1
 90
        3
176
     1
 62
     5
420
      255
176
     1
290
     0
176
     1
 90
       50
176
     1
 90
       50
176
     1
 90
       50
176
     1
290
     0
176
     1
 90
       50
176
     1
 62
   256
176
     0
 40
1.0
176
     0
 90
        2
176
     1
  1
strokes_ogs.tif
176
     1
290
     0
176
     1
 40
1.0
176
     1
 40
1.0
176
     1
1001
ACAD
1000
AcDbSavedByObjectVersion
1070
     0
  0
VISUALSTYLE
  5
3C
102
{ACAD_REACTORS
330
29
102
}
330
29
100
AcDbVisualStyle
  2
X-Ray
 70
    25
177
     3
291
     0
 70
    58
 90
        2
176
     1
 90
        2
176
     1
 90
        1
176
     1
 90
        1
176
     1
 40
0.5
176
     1
 40
30.0
176
     1
 62
     7
420
 16777215
176
     1
 90
        1
176
     1
 90
        0
176
     1
 62
     7
176
     1
 62
   257
176
     1
 90
        1
176
     1
 90
        1
176
     1
 40
1.0
176
     1
 90
        8
176
     1
 62
     7
176
     1
 40
1.0
176
     1
 90
        1
176
     1
 90
        6
176
     1
 90
        2
176
     1
 62
     7
176
     1
 90
        3
176
     1
 90
        0
176
     1
 90
        0
176
     1
290
     0
176
     1
 90
       13
176
     1
 40
0.0
176
     1
 90
        0
176
     1
290
     0
176
     1
290
     1
176
     1
290
     1
176
     1
290
     0
176
     1
290
     0
176
     1
290
     0
176
     1
290
     0
176
     1
290
     0
176
     1
290
     0
176
     1
 90
       50
176
     1
 40
0.0
176
     1
 40
1.0
176
     1
 90
        0
176
     1
 62
    18
420
        0
176
     1
 90
       50
176
     1
 90
        3
176
     1
 62
     5
420
      255
176
     1
290
     0
176
     1
 90
       50
176
     1
 90
       50
176
     1
 90
       50
176
     1
290
     0
176
     1
 90
       50
176
     1
 62
   256
176
     0
 40
1.0
176
     0
 90
        2
176
     1
  1
strokes_ogs.tif
176
     1
290
     0
176
     1
 40
1.0
176
     1
 40
1.0
176
     1
1001
ACAD
1000
AcDbSavedByObjectVersion
1070
     0
  0
DICTIONARYVAR
  5
AE
102
{ACAD_REACTORS
330
A9
102
}
330
A9
100
DictionaryVariables
280
     0
  1
1:1
  0
DICTIONARYVAR
  5
AB
102
{ACAD_REACTORS
330
A9
102
}
330
A9
100
DictionaryVariables
280
     0
  1
STANDARD
  0
DICTIONARYVAR
  5
AA
102
{ACAD_REACTORS
330
A9
102
}
330
A9
100
DictionaryVariables
280
     0
  1
STANDARD
  0
DICTIONARYVAR
  5
AC
102
{ACAD_REACTORS
330
A9
102
}
330
A9
100
DictionaryVariables
280
     0
  1
Imperial24
  0
DICTIONARYVAR
  5
AD
102
{ACAD_REACTORS
330
A9
102
}
330
A9
100
DictionaryVariables
280
     0
  1
Imperial24
  0
DICTIONARY
  5
B4
330
6B
100
AcDbDictionary
280
     1
281
     1
  3
ACAD_XREC_ROUNDTRIP
360
B5
  0
DICTIONARY
  5
1A
330
19
100
AcDbDictionary
280
     1
281
     1
  3
BUMPTILE
360
1C
  3
DIFFUSETILE
360
1B
  3
OPACITYTILE
360
1F
  3
REFLECTIONTILE
360
1E
  3
REFRACTIONTILE
360
20
  3
SPECULARTILE
360
1D
  0
DICTIONARY
  5
12
330
11
100
AcDbDictionary
280
     1
281
     1
  3
BUMPTILE
360
14
  3
DIFFUSETILE
360
13
  3
OPACITYTILE
360
17
  3
REFLECTIONTILE
360
16
  3
REFRACTIONTILE
360
18
  3
SPECULARTILE
360
15
  0
DICTIONARY
  5
22
330
21
100
AcDbDictionary
280
     1
281
     1
  3
BUMPTILE
360
24
  3
DIFFUSETILE
360
23
  3
OPACITYTILE
360
27
  3
REFLECTIONTILE
360
26
  3
REFRACTIONTILE
360
28
  3
SPECULARTILE
360
25
  0
DICTIONARY
  5
B2
330
69
100
AcDbDictionary
280
     1
281
     1
  3
ACAD_XREC_ROUNDTRIP
360
B3
  0
DICTIONARY
  5
AF
330
65
100
AcDbDictionary
280
     1
281
     1
  3
ACAD_ROUNDTRIP_2008_TABLESTYLE_CELLSTYLEMAP
360
B0
  0
XRECORD
  5
B5
102
{ACAD_REACTORS
330
B4
102
}
330
B4
100
AcDbXrecord
280
     1
102
DISPLAYNAME
  1
Imperial24
102
FLAGS
 90
        0
  0
XRECORD
  5
1C
102
{ACAD_REACTORS
330
1A
102
}
330
1A
100
AcDbXrecord
280
     1
270
     1
271
     1
  0
XRECORD
  5
1B
102
{ACAD_REACTORS
330
1A
102
}
330
1A
100
AcDbXrecord
280
     1
270
     1
271
     1
  0
XRECORD
  5
1F
102
{ACAD_REACTORS
330
1A
102
}
330
1A
100
AcDbXrecord
280
     1
270
     1
271
     1
  0
XRECORD
  5
1E
102
{ACAD_REACTORS
330
1A
102
}
330
1A
100
AcDbXrecord
280
     1
270
     1
271
     1
  0
XRECORD
  5
20
102
{ACAD_REACTORS
330
1A
102
}
330
1A
100
AcDbXrecord
280
     1
270
     1
271
     1
  0
XRECORD
  5
1D
102
{ACAD_REACTORS
330
1A
102
}
330
1A
100
AcDbXrecord
280
     1
270
     1
271
     1
  0
XRECORD
  5
14
102
{ACAD_REACTORS
330
12
102
}
330
12
100
AcDbXrecord
280
     1
270
     1
271
     1
  0
XRECORD
  5
13
102
{ACAD_REACTORS
330
12
102
}
330
12
100
AcDbXrecord
280
     1
270
     1
271
     1
  0
XRECORD
  5
17
102
{ACAD_REACTORS
330
12
102
}
330
12
100
AcDbXrecord
280
     1
270
     1
271
     1
  0
XRECORD
  5
16
102
{ACAD_REACTORS
330
12
102
}
330
12
100
AcDbXrecord
280
     1
270
     1
271
     1
  0
XRECORD
  5
18
102
{ACAD_REACTORS
330
12
102
}
330
12
100
AcDbXrecord
280
     1
270
     1
271
     1
  0
XRECORD
  5
15
102
{ACAD_REACTORS
330
12
102
}
330
12
100
AcDbXrecord
280
     1
270
     1
271
     1
  0
XRECORD
  5
24
102
{ACAD_REACTORS
330
22
102
}
330
22
100
AcDbXrecord
280
     1
270
     1
271
     1
  0
XRECORD
  5
23
102
{ACAD_REACTORS
330
22
102
}
330
22
100
AcDbXrecord
280
     1
270
     1
271
     1
  0
XRECORD
  5
27
102
{ACAD_REACTORS
330
22
102
}
330
22
100
AcDbXrecord
280
     1
270
     1
271
     1
  0
XRECORD
  5
26
102
{ACAD_REACTORS
330
22
102
}
330
22
100
AcDbXrecord
280
     1
270
     1
271
     1
  0
XRECORD
  5
28
102
{ACAD_REACTORS
330
22
102
}
330
22
100
AcDbXrecord
280
     1
270
     1
271
     1
  0
XRECORD
  5
25
102
{ACAD_REACTORS
330
22
102
}
330
22
100
AcDbXrecord
280
     1
270
     1
271
     1
  0
XRECORD
  5
B3
102
{ACAD_REACTORS
330
B2
102
}
330
B2
100
AcDbXrecord
280
     1
102
DISPLAYNAME
  1
Imperial24
102
FLAGS
 90
        0
  0
CELLSTYLEMAP
  5
B0
102
{ACAD_REACTORS
330
AF
102
}
330
AF
100
AcDbCellStyleMap
 90
        3
300
CELLSTYLE
  1
TABLEFORMAT_BEGIN
 90
        5
170
     1
 91
        0
 92
    32768
 62
   257
 93
        1
300
CONTENTFORMAT
  1
CONTENTFORMAT_BEGIN
 90
        0
 91
        0
 92
      512
 93
        0
300

 40
0.0
140
1.0
 94
        5
 62
     0
340
55
144
0.25
309
CONTENTFORMAT_END
171
     0
 94
        0
309
TABLEFORMAT_END
  1
CELLSTYLE_BEGIN
 90
        1
 91
        1
300
_TITLE
309
CELLSTYLE_END
300
CELLSTYLE
  1
TABLEFORMAT_BEGIN
 90
        5
170
     1
 91
        0
 92
        0
 62
   257
 93
        1
300
CONTENTFORMAT
  1
CONTENTFORMAT_BEGIN
 90
        0
 91
        0
 92
      512
 93
        0
300

 40
0.0
140
1.0
 94
        5
 62
     0
340
55
144
0.18
309
CONTENTFORMAT_END
171
     0
 94
        0
309
TABLEFORMAT_END
  1
CELLSTYLE_BEGIN
 90
        2
 91
        1
300
_HEADER
309
CELLSTYLE_END
300
CELLSTYLE
  1
TABLEFORMAT_BEGIN
 90
        5
170
     1
 91
        0
 92
        0
 62
   257
 93
        1
300
CONTENTFORMAT
  1
CONTENTFORMAT_BEGIN
 90
        0
 91
        0
 92
      512
 93
        0
300

 40
0.0
140
1.0
 94
        2
 62
     0
340
55
144
0.18
309
CONTENTFORMAT_END
171
     0
 94
        0
309
TABLEFORMAT_END
  1
CELLSTYLE_BEGIN
 90
        3
 91
        2
300
_DATA
309
CELLSTYLE_END
  0
ENDSEC
  0
EOF
